<?xml version="1.0" encoding="utf-8"?>
<!-- Generator: Adobe Illustrator 16.0.0, SVG Export Plug-In . SVG Version: 6.00 Build 0)  -->
<!DOCTYPE svg PUBLIC "-//W3C//DTD SVG 1.1//EN" "http://www.w3.org/Graphics/SVG/1.1/DTD/svg11.dtd">
<svg version="1.1" id="Layer_1" xmlns="http://www.w3.org/2000/svg" xmlns:xlink="http://www.w3.org/1999/xlink" x="0px" y="0px"
	 width="16px" height="16px" viewBox="0 0 16 16" enable-background="new 0 0 16 16" xml:space="preserve">
<g>
	<path d="M4.032,11.186c-1.045-1.041-2.129-2.125-3.166-3.162c2.361-2.364,4.775-4.776,7.163-7.165
		c2.344,2.345,4.747,4.753,7.115,7.124c-2.37,2.377-4.782,4.78-7.187,7.188C6.803,14.015,5.609,12.82,4.391,11.6
		c0.654-0.635,1.328-1.293,2.011-1.957C6.285,9.473,6.211,9.37,6.13,9.248c0.491-0.591,1.023-1.111,1.842-1.207
		C8.236,8.01,8.503,7.971,8.75,7.888C9.27,7.716,9.603,7.345,9.68,6.797c0.062-0.478-0.187-0.831-0.575-1.081
		c-0.169-0.108-0.359-0.16-0.547-0.16c-0.307,0-0.61,0.138-0.817,0.394C7.367,6.41,7.6,7.059,8.182,7.183
		c0.04,0.008,0.08,0.012,0.12,0.012c0.281,0,0.546-0.189,0.604-0.46C8.944,6.537,8.921,6.356,8.647,6.28
		C8.642,6.372,8.618,6.44,8.632,6.502C8.69,6.739,8.566,6.891,8.383,6.891c-0.012,0-0.023-0.001-0.035-0.002
		c-0.14-0.016-0.34-0.193-0.376-0.333c-0.081-0.325,0.246-0.614,0.59-0.614c0.069,0,0.14,0.012,0.207,0.037
		C9.249,6.162,9.4,6.857,9,7.199C8.481,7.652,7.836,7.75,7.186,7.75c-0.05,0-0.1,0-0.15-0.001C6.865,7.743,6.695,7.483,6.508,7.323
		C6.579,7.2,6.641,7.092,6.716,6.968C6.569,6.756,6.367,6.659,6.141,6.659c-0.056,0-0.114,0.006-0.172,0.018
		c-0.109,0.02-0.249,0.159-0.275,0.267c-0.076,0.3,0.027,0.559,0.282,0.767c0.114-0.073,0.209-0.139,0.327-0.216
		c0.138,0.131,0.272,0.261,0.429,0.409C6.452,8.147,6.176,8.38,5.883,8.636c-0.071-0.07-0.212-0.203-0.369-0.349
		C5.595,8.17,5.667,8.069,5.74,7.965c-0.169-0.21-0.443-0.333-0.667-0.333c-0.111,0-0.211,0.03-0.28,0.095
		C4.598,7.916,4.701,8.407,5.01,8.691C5.111,8.62,5.215,8.545,5.314,8.472c0.153,0.147,0.297,0.283,0.45,0.434
		C5.686,9.003,5.613,9.099,5.527,9.213c0.07,0.097,0.144,0.204,0.196,0.28C5.142,10.074,4.569,10.649,4.032,11.186 M8.026,0.073
		H7.955C6.982,1.052,6.014,2.032,5.04,3.005C3.397,4.649,1.748,6.286,0.1,7.927V8.07c1.417,1.413,2.839,2.823,4.254,4.241
		c1.203,1.199,2.401,2.411,3.601,3.616h0.072c0.158-0.163,0.315-0.329,0.477-0.487c2.367-2.371,4.74-4.742,7.106-7.118
		c0.116-0.113,0.196-0.266,0.291-0.396l-0.119-0.085C13.194,5.251,10.608,2.662,8.026,0.073"/>
	<path d="M8.643,8.596l-0.1,0.093c0.053,0.093,0.099,0.201,0.164,0.28c0.075,0.091,0.168,0.163,0.26,0.248
		c-0.09,0.121-0.162,0.229-0.231,0.325C8.938,9.75,9.201,9.862,9.414,9.862c0.117,0,0.22-0.034,0.289-0.105
		c0.193-0.201,0.074-0.696-0.241-0.944C9.366,8.88,9.263,8.952,9.175,9.015C8.985,8.865,8.813,8.73,8.643,8.596"/>
	<path d="M7.648,9.588L7.555,9.704c0.139,0.165,0.277,0.332,0.419,0.502c-0.072,0.112-0.148,0.228-0.219,0.338
		c0.222,0.185,0.485,0.283,0.692,0.283c0.129,0,0.237-0.038,0.298-0.119c0.162-0.215,0.05-0.657-0.248-0.921
		C8.386,9.856,8.271,9.932,8.206,9.975C7.993,9.831,7.82,9.71,7.648,9.588"/>
</g>
</svg>
