<?xml version="1.0" encoding="utf-8"?>
<!-- Generator: Adobe Illustrator 16.0.0, SVG Export Plug-In . SVG Version: 6.00 Build 0)  -->
<!DOCTYPE svg PUBLIC "-//W3C//DTD SVG 1.1//EN" "http://www.w3.org/Graphics/SVG/1.1/DTD/svg11.dtd">
<svg version="1.1" id="Layer_1" xmlns="http://www.w3.org/2000/svg" xmlns:xlink="http://www.w3.org/1999/xlink" x="0px" y="0px"
	 width="612px" height="792px" viewBox="0 0 612 792" enable-background="new 0 0 612 792" xml:space="preserve">
<g>
	<path fill-rule="evenodd" clip-rule="evenodd" fill="none" d="M-42.258,396.635c0-130.772,0.042-261.42-0.126-392.192
		c-0.008-6.56,1.243-7.808,7.805-7.802c227.244,0.272,454.237,0.272,681.481,0c6.68-0.006,7.807,1.242,7.801,7.802
		c-0.141,261.42-0.141,522.845,0,784.392c0.006,6.434-1.115,7.807-7.801,7.807c-227.244-0.146-454.237-0.146-681.481-0.006
		c-6.56,0.006-7.813-1.367-7.805-7.801C-42.216,658.182-42.258,527.287-42.258,396.635z M308.709,215.07
		c0.021,0.716,0.043,1.429,0.305,2.143c33.877-2.504,68.021-4.57,101.871-7.352c13.875-1.146,27.439-3.539,41.225-5.867
		c1.939-0.369,5.631-4.313,5.41-4.994c-5.064-9.467-10.754-18.485-15.535-28.094c-6.166-12.114-11.557-24.627-17.65-36.784
		c-0.424-1.237-3.391-2.034-5.121-1.984c-26.195,1.122-49.607-9.401-73.443-16.8c-12.148-3.751-12.893-3.55-15.232,8.69
		c-0.834,4.552-3.91,9.635-7.387,12.078c-1.936,1.186-7.361-3.146-10.965-4.755c-4.377-1.852-8.588-3.372-12.971-5.07
		c-3.277-1.442-6.561-2.776-9.721-4.569c-5.748-2.897-10.771-6.623-16.391-9.11c-4.18-1.836-8.59-1.951-12.936-3.369
		c-12.662-4.045-14.377-8.315-9.343-20.381c0.545-0.936-1.002-4.087-1.773-4.231c-15.409-0.931-30.615-2.781-45.993-2.089
		c-17.455,0.76-35.067,4.409-52.522,5.516c-23.469,1.476-38.071,17.046-52.333,32.157c-12.38,13.143-20.983,30.4-34.937,41.175
		c-17.239,13.295-25.12,29.824-29.86,49.442c-2.506,10.318-0.833,11.272,9.464,10.051c27.899-3.279,55.642-8.229,83.614-8.499
		C187.302,211.943,248.134,214.108,308.709,215.07z M352.193,717.541c0.23,0.912,0.713,1.824,0.943,2.73
		c7.088-2.711,14.963-4.629,21.15-8.771c19.275-13.26,39.928-25.582,43.498-52.16c0.211-2.385,1.768-4.697,3.094-6.711
		c18.834-34.832,37.621-69.447,56.885-104.189c2.721-5.055,7.277-9.512,11.084-14.242c-6.826-1.697-13.674-3.355-20.232-5.354
		c-49.33-13.432-93.105-39.057-138.041-62.719c-26.238-14.057-54.342-25.021-81.99-37.338c-1.902-0.871-4.393-0.734-6.727-0.949
		c1.631,1.721,3.23,3.723,4.887,5.412c3.393,3.455,7.959,6.512,10.355,10.895c7.398,12.543,14.629,25.131,20.119,38.455
		c6.197,14.953,8.086,30.447-3.666,44.65c-2.668,3.572-4.965,8.988-4.719,13.119c1.307,14.074,2.906,28.203,6.031,42.057
		c3.695,15.756,8.844,31.229,13.48,46.828c3.182,10.912,4.754,22.678,10.098,32.336c7.896,14.77,15.752,28.922,17.738,46.066
		c1.479,13.428,8.504,16.963,21.266,12.578C342.146,718.678,347.357,718.416,352.193,717.541z M145.192,324.692
		c-28.979,2.375-57.97,4.734-87.162,7.167c-1.612,0.221-3.18,1.167-4.826,1.833c0.878,1.229,1.521,2.734,2.716,3.657
		c5.605,5.078,11.227,10.091,16.884,15.085c7.831,6.753,16.862,9.71,27.239,7.797c35.156-6.452,70.16-18.789,106.234-8.979
		c12.333,3.264,24.129,10.565,34.275,18.425c7.272,5.773,3.801,15.51,1.484,23.917c-0.771,2.941,2.448,9.391,4.981,10.168
		c48.055,14.131,90.389,39.723,133.572,63.344c33.289,18.336,67.729,33.205,104.463,42.623c7.219,1.777,10.344,1.734,9.438-6.99
		c-1.646-15.426-2.969-30.893-3.885-46.109c-1.064-18.691,5.924-32.775,23.93-40.336c0.986-0.305,1.852-1.148,2.779-1.867
		c-1.086-0.461-2.406-0.713-3.492-1.127c-7.791-1.27-15.703-2.334-23.344-4.357c-48.49-14.498-97.063-28.397-145.338-43.829
		C279.84,344.391,214.095,327.852,145.192,324.692z M165.463,275.421c-43.907,5.106-85.854,9.865-127.582,14.973
		c-2.756,0.349-7.07,3.066-7.349,4.978c-0.661,8.594,8.94,16.171,17.313,14.878c56.826-9.047,113.711-8.927,170.638-0.285
		c60.351,9.26,117.886,29.325,175.913,47.187c43.131,13.25,87.379,23.511,131.191,34.661c4.824,1.085,11.934,0.661,15.783-2.181
		c26.273-19.162,42.123-45.3,50.764-76.487c2.859-9.802-0.025-10.919-8.488-9.076c-12.111,2.656-24.475,5.889-36.949,6.924
		c-10.885,0.826-21.932-1.972-32.887-1.779c-62.211,1.549-123.389-5.826-184.84-14.236
		C274.15,287.3,218.897,281.726,165.463,275.421z M165.353,235.231c0,0.039,0,0.076,0,0.115c-8.358,0-16.763-0.708-24.822,0.078
		c-35.701,3.464-71.141,7.213-106.729,11.177c-12.304,1.315-4.302,11.482-6.578,17.308c3.083,1.012,6.234,2.997,9.163,2.672
		c35.953-3.563,71.552-9.249,107.516-10.97c81.271-3.956,160.75,14.168,241.045,22.814c39.691,4.252,79.646,4.976,119.484,7.265
		c1.473,0.055,2.721-0.357,4.211-0.485c-0.787-0.973-1.512-1.903-2.377-2.658c-16.357-13.541-27.295-30.773-34.557-50.339
		c-2.287-5.942-5.57-7.022-11.572-5.917c-48.652,8.896-97.846,13.659-147.557,12.828
		C263.418,238.173,214.514,236.511,165.353,235.231z"/>
	<path fill-rule="evenodd" clip-rule="evenodd" fill="#E7E7E7" d="M308.709,215.07c-60.575-0.962-121.407-3.127-182.225-2.697
		c-27.973,0.27-55.715,5.22-83.614,8.499c-10.298,1.222-11.971,0.268-9.464-10.051c4.74-19.618,12.621-36.147,29.86-49.442
		c13.953-10.774,22.557-28.032,34.937-41.175c14.262-15.111,28.864-30.682,52.333-32.157c17.455-1.106,35.067-4.756,52.522-5.516
		c15.378-0.692,30.584,1.158,45.993,2.089c0.771,0.145,2.318,3.296,1.773,4.231c-5.034,12.065-3.319,16.336,9.343,20.381
		c4.346,1.418,8.756,1.533,12.936,3.369c5.619,2.487,10.643,6.213,16.391,9.11c3.16,1.793,6.443,3.127,9.721,4.569
		c4.383,1.698,8.594,3.219,12.971,5.07c3.604,1.609,9.029,5.94,10.965,4.755c3.477-2.443,6.553-7.526,7.387-12.078
		c2.34-12.24,3.084-12.441,15.232-8.69c23.836,7.398,47.248,17.922,73.443,16.8c1.73-0.05,4.697,0.747,5.121,1.984
		c6.094,12.157,11.484,24.67,17.65,36.784c4.781,9.608,10.471,18.627,15.535,28.094c0.221,0.682-3.471,4.625-5.41,4.994
		c-13.785,2.328-27.35,4.722-41.225,5.867c-33.85,2.781-67.994,4.848-101.871,7.352C308.752,216.499,308.73,215.786,308.709,215.07z
		"/>
	<path fill-rule="evenodd" clip-rule="evenodd" fill="#234557" d="M352.193,717.541c-4.836,0.875-10.047,1.137-14.746,2.693
		c-12.762,4.385-19.787,0.85-21.266-12.578c-1.986-17.145-9.842-31.297-17.738-46.066c-5.344-9.658-6.916-21.424-10.098-32.336
		c-4.637-15.6-9.785-31.072-13.48-46.828c-3.125-13.854-4.725-27.982-6.031-42.057c-0.246-4.131,2.051-9.547,4.719-13.119
		c11.752-14.203,9.863-29.697,3.666-44.65c-5.49-13.324-12.721-25.912-20.119-38.455c-2.396-4.383-6.963-7.439-10.355-10.895
		c-1.656-1.689-3.256-3.691-4.887-5.412c2.334,0.215,4.824,0.078,6.727,0.949c27.648,12.316,55.752,23.281,81.99,37.338
		c44.936,23.662,88.711,49.287,138.041,62.719c6.559,1.998,13.406,3.656,20.232,5.354c-3.807,4.73-8.363,9.188-11.084,14.242
		c-19.264,34.742-38.051,69.357-56.885,104.189c-1.326,2.014-2.883,4.326-3.094,6.711c-3.57,26.578-24.223,38.9-43.498,52.16
		c-6.188,4.143-14.063,6.061-21.15,8.771C352.906,719.365,352.424,718.453,352.193,717.541z"/>
	<path fill-rule="evenodd" clip-rule="evenodd" fill="#165F89" d="M145.192,324.692c68.902,3.159,134.647,19.698,199.948,40.42
		c48.275,15.432,96.848,29.331,145.338,43.829c7.641,2.023,15.553,3.088,23.344,4.357c1.086,0.414,2.406,0.666,3.492,1.127
		c-0.928,0.719-1.793,1.563-2.779,1.867c-18.006,7.561-24.994,21.645-23.93,40.336c0.916,15.217,2.238,30.684,3.885,46.109
		c0.906,8.725-2.219,8.768-9.438,6.99c-36.734-9.418-71.174-24.287-104.463-42.623c-43.184-23.621-85.518-49.213-133.572-63.344
		c-2.533-0.777-5.752-7.227-4.981-10.168c2.317-8.407,5.788-18.144-1.484-23.917c-10.146-7.859-21.943-15.161-34.275-18.425
		c-36.074-9.81-71.078,2.527-106.234,8.979c-10.377,1.913-19.408-1.044-27.239-7.797c-5.657-4.994-11.278-10.007-16.884-15.085
		c-1.195-0.923-1.837-2.428-2.716-3.657c1.646-0.666,3.214-1.612,4.826-1.833C87.223,329.427,116.213,327.067,145.192,324.692z"/>
	<path fill-rule="evenodd" clip-rule="evenodd" fill="#1B98D2" d="M165.463,275.421c53.435,6.305,108.688,11.879,163.508,19.555
		c61.451,8.41,122.629,15.785,184.84,14.236c10.955-0.192,22.002,2.605,32.887,1.779c12.475-1.035,24.838-4.268,36.949-6.924
		c8.463-1.843,11.348-0.726,8.488,9.076c-8.641,31.188-24.49,57.325-50.764,76.487c-3.85,2.842-10.959,3.266-15.783,2.181
		c-43.813-11.15-88.061-21.411-131.191-34.661c-58.027-17.861-115.563-37.927-175.913-47.187
		c-56.927-8.642-113.812-8.762-170.638,0.285c-8.374,1.293-17.974-6.284-17.313-14.878c0.278-1.911,4.593-4.629,7.349-4.978
		C79.609,285.286,121.556,280.527,165.463,275.421z"/>
	<path fill-rule="evenodd" clip-rule="evenodd" fill="#1B98D2" d="M165.353,235.231c49.161,1.279,98.065,2.941,147.227,3.888
		c49.711,0.831,98.904-3.933,147.557-12.828c6.002-1.105,9.285-0.025,11.572,5.917c7.262,19.565,18.199,36.798,34.557,50.339
		c0.865,0.755,1.59,1.686,2.377,2.658c-1.49,0.128-2.738,0.54-4.211,0.485c-39.838-2.289-79.793-3.013-119.484-7.265
		c-80.295-8.646-159.773-26.771-241.045-22.814c-35.963,1.721-71.563,7.407-107.516,10.97c-2.929,0.325-6.08-1.66-9.163-2.672
		c2.276-5.825-5.726-15.992,6.578-17.308c35.589-3.964,71.028-7.713,106.729-11.177c8.059-0.786,16.464-0.078,24.822-0.078
		C165.353,235.308,165.353,235.271,165.353,235.231z"/>
</g>
</svg>
