<?xml version="1.0" encoding="utf-8"?>
<!-- Generator: Adobe Illustrator 16.0.0, SVG Export Plug-In . SVG Version: 6.00 Build 0)  -->
<!DOCTYPE svg PUBLIC "-//W3C//DTD SVG 1.1//EN" "http://www.w3.org/Graphics/SVG/1.1/DTD/svg11.dtd">
<svg version="1.1" id="Layer_1" xmlns="http://www.w3.org/2000/svg" xmlns:xlink="http://www.w3.org/1999/xlink" x="0px" y="0px"
	 width="300px" height="210px" viewBox="0 0 300 210" enable-background="new 0 0 300 210" xml:space="preserve">
<g>
	<path display="none" fill-rule="evenodd" clip-rule="evenodd" fill="#FEFEFE" d="M-12.614,210.435c0-70.604,0-141.209,0-211.849
		c107.085,0,214.184,0,321.348,0c0,70.593,0,141.221,0,211.849C201.645,210.435,94.522,210.435-12.614,210.435z M83.108,96.121
		c-0.237,1.835,0.748,2.106,2.213,2.098c8.298-0.044,16.597-0.02,24.896-0.023c0.452,0,1.139,0.144,1.316-0.1
		c0.615-0.848,1.179-1.797,1.479-2.8c0.085-0.286-0.718-1.129-1.241-1.305c-2.652-0.894-5.329-1.721-8.032-2.427
		c-1.464-0.383-1.974-1.19-1.955-2.732c0.146-12.102,0.268-24.203,0.319-36.306c0.007-1.697,0.717-2.284,2.15-2.436
		c2.706-0.288,5.404-0.662,8.112-0.925c3.173-0.309,3.926-1.05,4.511-4.848c-0.709-0.039-1.399-0.107-2.088-0.109
		c-3.502-0.012-7.003-0.059-10.503,0.016c-1.56,0.033-2.272-0.482-2.161-2.219c0.216-3.389,0.182-6.801,0.518-10.174
		c0.392-3.933,1.146-7.813,3.369-11.164c1.373-2.069,3.191-3.476,5.674-3.295c0.784,0.058,1.796,0.723,2.215,1.429
		c1.09,1.84,1.857,3.889,2.864,5.787c0.379,0.71,1.337,1.85,1.569,1.737c0.866-0.416,1.879-1.122,2.222-1.987
		c1.142-2.881,2.09-5.854,2.926-8.851c0.152-0.548-0.456-1.849-0.922-1.979c-2.599-0.726-5.29-1.785-7.898-1.652
		c-9.793,0.499-16.047,6.455-19.979,15.434c-1.919,4.382-2.523,9.1-2.768,13.894c-0.153,3.016-0.268,3.009-3.092,3.019
		c-3.347,0.013-3.897,0.539-4.539,4.55c1.731,0.431,3.465,0.956,5.232,1.276c1.612,0.292,2.257,1.039,2.243,2.848
		c-0.087,11.086-0.003,22.173-0.104,33.261c-0.057,6.308,0.919,4.546-4.624,7.32c-1.402,0.703-2.632,1.788-3.942,2.696
		c0.196-1.34-0.455-1.967-1.618-2.326c-1.615-0.498-3.187-1.149-4.792-1.683c-3.135-1.045-5.026-3.251-6.245-6.46
		c-6.768-17.814-13.728-35.548-20.428-53.39c-1.96-5.221-3.287-10.702-4.912-16.062c-0.109-0.361-0.283-0.701-0.533-1.308
		c-2.841,1.805-5.579,3.461-8.203,5.298c-0.39,0.274-0.544,1.553-0.288,2.097c1.058,2.246,0.693,4.398-0.153,6.51
		c-7.379,18.43-14.913,36.795-22.108,55.305c-1.823,4.689-4.306,8.04-9.014,9.363c-2.162,0.608-2.639,2.307-2.632,4.316
		c0.176,0.124,0.281,0.263,0.387,0.263c8.165,0.038,16.33,0.079,24.496,0.082c1.46,0,1.374-1.332,1.668-2.343
		c0.336-1.158-0.245-1.607-1.148-1.932c-2.391-0.858-4.761-1.787-7.167-2.597c-1.375-0.462-1.65-1.198-1.121-2.595
		c2.104-5.561,4.155-11.146,6.179-16.739c0.408-1.128,1.05-1.543,2.182-1.561c7.646-0.11,15.291-0.235,22.932-0.458
		c1.569-0.046,2.334,0.564,2.885,2.038c2.013,5.38,4.154,10.708,6.172,16.086c1.56,4.154,1.408,3.208-1.451,5.602
		c-1.357,1.136-2.208,2.38-1.912,4.431c0.768,0.037,1.468,0.099,2.167,0.1c7.066,0.007,14.133-0.051,21.199,0.046
		C81.331,98.259,82.516,97.857,83.108,96.121z M163.707,147.995c3.022,0,6.044,0,9.309,0c0,14.578,0,28.886,0,43.126
		c10.521,0,20.791,0,31.002,0c0-2.731,0-5.279,0-8.074c-6.665,0-13.172,0-19.67,0c0-3.216,0-6.177,0-9.379
		c6.113,0,12.104,0,18.053,0c0-2.846,0-5.446,0-8.229c-6.127,0-12.066,0-18.082,0c0-3.09,0-5.987,0-9.148c6.606,0,13.117,0,19.745,0
		c0.045-0.92,0.152-1.588,0.099-2.243c-0.249-3.095-0.759-6.185-0.782-9.278c-0.092-12.519-0.038-25.037-0.038-37.555
		c0-0.786,0-1.572,0-2.393c-3.508,0-6.715,0-10.192,0c0,10.536,0,20.937,0,31.339c-0.163,0.042-0.327,0.084-0.488,0.125
		c-0.338-0.689-0.702-1.368-1.006-2.075c-3.985-9.285-7.95-18.579-11.969-27.851c-0.279-0.645-0.914-1.582-1.399-1.592
		c-4.97-0.118-9.942-0.072-15.072-0.072c0,14.582,0,28.921,0,43.259c-3.165,0-6.33,0-9.675,0c-1.271,10.4-2.506,20.532-3.743,30.665
		c-0.188-0.009-0.377-0.016-0.565-0.023c-1.957-10.133-3.914-20.265-5.921-30.652c3.004,0,5.699,0,8.469,0c0-2.807,0-5.411,0-8.271
		c-6.717,0-13.293,0-19.878,0c0-3.217,0-6.176,0-9.327c6.135,0,12.138,0,18.236,0c0-2.805,0-5.409,0-8.254
		c-6.15,0-12.153,0-18.208,0c0-3.185,0-6.123,0-9.312c6.732,0,13.305,0,19.862,0c0-2.807,0-5.36,0-7.94c-10.463,0-20.796,0-31.168,0
		c0,14.408,0,28.662,0,43.191c2.97,0,5.83,0,8.861,0c-2.236,10.529-4.409,20.758-6.581,30.985c-0.533-0.658-0.718-1.28-0.794-1.915
		c-1.071-8.896-2.201-17.785-3.128-26.697c-0.206-1.984-0.844-2.479-2.618-2.382c-2.746,0.15-5.505,0.04-8.425,0.04
		c0-14.625,0-28.884,0-43.195c-3.82,0-7.461,0-11.075,0c0,14.433,0,28.684,0,43.164c3.618,0,7.088,0,10.498,0
		c0.128,0.416,0.21,0.602,0.242,0.798c2.212,13.588,4.446,27.17,6.588,40.771c0.226,1.428,0.762,1.754,2.006,1.727
		c3.241-0.068,6.49-0.142,9.724,0.026c1.723,0.088,2.303-0.6,2.677-2.242c2.136-9.375,4.37-18.723,6.581-28.079
		c0.105-0.443,0.308-0.86,0.647-1.783c0.307,1.228,0.485,1.872,0.629,2.527c2.057,9.254,4.148,18.499,6.12,27.774
		c0.313,1.473,0.9,1.818,2.216,1.783c3.239-0.088,6.489-0.145,9.724,0.019c1.686,0.084,2.214-0.564,2.476-2.195
		C159.19,175.431,161.459,161.715,163.707,147.995z M259.247,148.065c0,14.522,0,28.812,0,43.077c3.771,0,7.365,0,11.188,0
		c0-7.519,0-14.881,0-22.244c0.862,0.477,1.301,1.103,1.688,1.76c3.107,5.25,6.493,10.349,9.212,15.813
		c1.951,3.925,4.374,5.503,8.529,4.903c2.625-0.379,5.338-0.071,8.312-0.071c-0.568-0.946-0.892-1.519-1.243-2.074
		c-4.303-6.787-8.572-13.597-12.942-20.337c-0.831-1.282-0.873-2.136,0.071-3.362c3.544-4.597,6.995-9.272,10.462-13.935
		c1.177-1.58,2.552-2.912,1.872-5.445c-0.518-1.931-0.102-4.137-0.102-6.474c-6.853,0-13.422,0-20.01,0c0-3.22,0-6.177,0-9.386
		c6.184,0,12.235,0,18.287,0c0-2.813,0-5.366,0-8.212c-6.179,0-12.231,0-18.292,0c0-3.189,0-6.082,0-9.226
		c6.698,0,13.268,0,19.847,0c0-2.859,0-5.459,0-8.052c-10.453,0-20.738,0-31.255,0c0,14.418,0,28.726,0,43.265
		C262.863,148.065,261.08,148.065,259.247,148.065z M215.901,148.028c0,14.621,0,28.873,0,43.11c10.421,0,20.692,0,30.956,0
		c0-2.715,0-5.263,0-8.053c-6.652,0-13.163,0-19.65,0c0-3.261,0-6.27,0-9.444c6.118,0,12.06,0,18.052,0c0-2.777,0-5.381,0-8.216
		c-6.137,0-12.128,0-18.096,0c0-3.133,0-6.027,0-9.188c6.639,0,13.149,0,19.721,0c0-2.823,0-5.375,0-8.042
		c-1.255-0.094-2.408-0.18-3.563-0.265c6.007-2.468,10.309-6.132,10.411-13.614c-3.986,0-7.842,0-11.681,0
		c-0.832,3.285-1.563,4.401-3.493,5.376c-5.106,2.58-9.921,0.405-11.513-5.28c-1.229-4.391-1.135-8.896-0.456-13.34
		c0.32-2.091,1.141-4.154,2.036-6.077c0.843-1.809,2.528-2.694,4.433-2.915c4.797-0.56,7.482,1.22,9.042,5.945
		c3.848,0,7.705,0,11.557,0c0.079-5.581-2.561-9.708-7.648-11.967c-4.898-2.175-10.065-2.683-15.265-2.037
		c-8.773,1.088-13.989,6.156-15.731,15.211c-0.547,2.837-0.79,5.813-0.669,8.702c0.365,8.677,3.071,15.987,11.451,19.57
		c0.084,0.035,0.123,0.186,0.33,0.523C222.666,148.028,219.348,148.028,215.901,148.028z M297.43,96.148
		c-2.11-1.261-3.556-2.024-4.897-2.949c-2.92-2.013-4.592-4.529-4.444-8.581c0.299-8.284,0.264-16.591,0.087-24.882
		c-0.258-11.9-9.444-19.302-20.438-16.509c-6.375,1.62-12.054,4.898-17.39,8.852c-1.159,0.859-1.253,1.793-0.491,2.936
		c1.669,2.504,3.295,5.04,5.052,7.475c0.39,0.542,1.403,1.142,1.848,0.959c0.633-0.261,1.274-1.152,1.44-1.891
		c0.505-2.243,0.867-4.531,1.135-6.821c0.463-3.952,0.737-4.407,4.384-5.342c5.795-1.484,11.863,0.313,13.677,6.282
		c0.657,2.164,0.919,4.507,1.05,6.788c0.199,3.5,0.026,3.323-3.054,4.377c-6.891,2.354-13.747,4.832-20.56,7.421
		c-2.786,1.059-4.43,3.456-5.322,6.383c-2.322,7.606,1.925,16.041,9.218,18.367c6.478,2.066,12.122,0.12,17.334-3.926
		c0.86-0.668,1.696-1.375,2.229-1.808c1.769,1.786,3.104,3.754,4.919,4.832c3.461,2.055,7.316,2.34,11.07,0.776
		C295.375,98.429,296.198,97.249,297.43,96.148z M0.371,134.416c-0.509,5.469,2.473,10.561,7.538,12.586
		c1.973,0.788,4.103,1.284,6.202,1.548c5.553,0.693,11.016,0.294,16.06-2.563c4.334-2.454,6.484-6.287,6.235-11.516
		c-0.243-5.097-2.731-8.494-7.154-10.414c-0.895-0.388-1.822-0.701-2.754-0.976c-3.606-1.065-7.262-1.968-10.816-3.195
		c-2.235-0.771-3.217-2.507-2.965-4.232c0.262-1.802,2.092-3.46,4.241-3.566c4.402-0.222,6.024,0.891,7.063,5.045
		c3.61,0,7.205,0,10.773,0c0.505-3.948-0.834-7.441-3.617-9.693c-2.49-2.015-5.381-2.966-8.438-3.317
		c-5.673-0.652-11.302-0.585-16.404,2.584c-4.164,2.588-5.768,6.67-5.348,11.601c0.387,4.548,2.699,7.693,6.822,9.257
		c1.941,0.736,3.915,1.393,5.895,2.009c2.601,0.809,5.268,1.406,7.82,2.35c2.218,0.819,3.274,2.55,3.065,4.437
		c-0.246,2.214-1.735,3.319-3.569,3.824c-4.448,1.22-8.855-0.015-9.86-5.768C7.563,134.416,3.959,134.416,0.371,134.416z
		 M240.6,85.239c-2.578,1.816-5.14,3.758-7.835,5.467c-1.578,1-3.355,2.27-5.065,2.31c-5.854,0.136-11.163-1.76-15.156-6.498
		c-7.053-8.368-7.365-22.468-0.731-31.381c4.309-5.791,10.078-8.022,16.974-7.255c1.543,0.171,2.339,0.996,2.732,2.648
		c0.719,3.029,1.656,6.005,2.583,8.976c0.566,1.811,1.511,2.053,2.79,0.717c0.53-0.553,0.928-1.325,1.184-2.073
		c0.892-2.623,1.798-5.249,2.505-7.93c0.877-3.335,0.634-3.743-2.373-5.091c-5.58-2.501-11.377-3.093-17.334-2.02
		c-7.455,1.342-14.023,4.543-18.888,10.77c-5.589,7.151-6.894,15.489-5.389,24.412c0.808,4.785,2.678,9.062,5.886,12.651
		c7.865,8.797,20.323,10.817,31.341,7.091c0.419-0.142,0.894-0.365,1.161-0.705c2.139-2.707,4.289-5.409,6.321-8.203
		C242.201,87.891,241.979,86.576,240.6,85.239z M85.551,118.049c0.329-5.284-2.53-9.793-7.723-12.022
		c-5.347-2.296-10.931-2.756-16.593-1.75c-7.206,1.281-11.897,5.66-13.91,13.046c-1.545,5.673-1.537,11.416-0.199,17.127
		c1.21,5.159,3.672,9.601,8.391,11.872c8.46,4.073,16.92,3.451,24.922-1.419c3.651-2.22,5.266-5.985,5.205-10.722
		c-2.026,0-3.954,0-5.882,0c-1.935,0-3.869,0-5.749,0c-0.864,3.364-1.551,4.45-3.353,5.413c-5.113,2.739-10.069,0.581-11.686-5.171
		c-1.213-4.317-1.148-8.753-0.499-13.133c0.31-2.095,1.059-4.188,1.961-6.102c1.024-2.165,2.973-3.102,5.297-3.146
		c4.178-0.082,7.37,1.322,8.257,6.006C77.957,118.049,81.76,118.049,85.551,118.049z M149.295,94.643
		c-3.064-0.844-6.178-1.712-9.299-2.558c-2.767-0.751-2.774-0.742-2.775-3.82c-0.002-8.096,0.052-16.192-0.035-24.288
		c-0.024-2.218,0.501-4.148,1.63-5.958c1.738-2.787,3.917-5.093,6.833-6.478c2.422-1.15,3.844-0.537,5.052,1.887
		c0.659,1.325,1.315,2.664,2.109,3.9c0.422,0.657,1.302,1.66,1.684,1.534c0.731-0.241,1.56-1.065,1.817-1.842
		c1.148-3.46,2.09-6.996,3.149-10.489c0.446-1.473-0.139-2.321-1.342-2.941c-3.001-1.55-6.057-1.268-9.073-0.183
		c-4.465,1.607-7.743,4.838-10.476,8.762c-0.386,0.554-0.809,1.081-1.214,1.62c-0.469-0.995-0.47-1.789-0.549-2.575
		c-0.236-2.364-0.423-4.738-0.816-7.074c-0.094-0.555-1.053-1.477-1.387-1.378c-3.983,1.168-8.006,2.275-11.84,3.871
		c-2.126,0.885-1.866,3.386,0.199,4.503c0.808,0.437,1.564,1.003,2.409,1.325c1.694,0.645,2.13,1.869,2.048,3.655
		c-0.177,3.87-0.241,7.746-0.276,11.622c-0.063,7.142-0.1,14.287-0.077,21.429c0.005,1.499-0.459,2.395-1.816,2.957
		c-1.441,0.597-2.977,1.197-4.131,2.218c-0.75,0.663-0.892,2.083-1.306,3.164c0.752,0.229,1.501,0.653,2.255,0.658
		c8.04,0.049,16.081,0.033,24.122,0.033C148.952,98.197,149.15,97.982,149.295,94.643z M182.363,67.054c-0.007,0-0.014,0-0.021,0
		c0-7.408-0.021-14.817,0.017-22.225c0.007-1.466-0.273-2.489-1.936-2.102c-4.232,0.987-8.475,1.928-12.655,3.122
		c-0.695,0.2-1.301,1.517-1.525,2.434c-0.104,0.417,0.731,1.267,1.304,1.647c0.979,0.649,2.056,1.164,3.146,1.586
		c1.236,0.481,1.614,1.337,1.609,2.659c-0.046,11.69-0.066,23.379-0.044,35.07c0.003,1.352-0.462,2.138-1.626,2.662
		c-1.427,0.644-2.977,1.193-4.134,2.211c-0.813,0.716-1.057,2.145-1.556,3.256c0.778,0.272,1.551,0.776,2.329,0.783
		c6.802,0.063,13.604,0.039,20.407,0.038c0.452,0,1.116,0.169,1.32-0.074c0.662-0.792,1.334-1.681,1.634-2.657
		c0.118-0.382-0.631-1.346-1.178-1.609c-1.583-0.763-3.243-1.374-4.912-1.912c-1.6-0.515-2.23-1.483-2.211-3.275
		C182.409,81.463,182.363,74.258,182.363,67.054z M176.809,33.163c0.271-0.164,0.822-0.394,1.249-0.778
		c0.979-0.883,1.985-1.76,2.824-2.782c3.823-4.659,3.911-4.906,0.054-9.446c-3.072-3.617-3.682-3.631-6.943-0.2
		c-1.486,1.564-2.838,3.386-3.817,5.33C169.351,26.921,174.648,33.282,176.809,33.163z"/>
	<path fill-rule="evenodd" clip-rule="evenodd" fill="#222222" d="M163.707,147.995c-2.248,13.72-4.517,27.436-6.716,41.161
		c-0.262,1.631-0.79,2.279-2.476,2.195c-3.234-0.163-6.484-0.106-9.724-0.019c-1.316,0.035-1.903-0.311-2.216-1.783
		c-1.972-9.275-4.063-18.521-6.12-27.774c-0.145-0.655-0.322-1.3-0.629-2.527c-0.339,0.923-0.542,1.34-0.647,1.783
		c-2.21,9.356-4.444,18.704-6.581,28.079c-0.374,1.643-0.954,2.33-2.677,2.242c-3.234-0.168-6.483-0.095-9.724-0.026
		c-1.244,0.027-1.78-0.299-2.006-1.727c-2.143-13.601-4.376-27.183-6.588-40.771c-0.032-0.196-0.114-0.382-0.242-0.798
		c-3.41,0-6.88,0-10.498,0c0-14.479,0-28.73,0-43.164c3.614,0,7.255,0,11.075,0c0,14.311,0,28.57,0,43.195
		c2.919,0,5.679,0.11,8.425-0.04c1.774-0.097,2.412,0.397,2.618,2.382c0.927,8.912,2.057,17.801,3.128,26.697
		c0.076,0.635,0.262,1.257,0.794,1.915c2.172-10.228,4.345-20.456,6.581-30.985c-3.031,0-5.891,0-8.861,0
		c0-14.529,0-28.783,0-43.191c10.373,0,20.705,0,31.168,0c0,2.58,0,5.133,0,7.94c-6.558,0-13.13,0-19.862,0c0,3.188,0,6.127,0,9.312
		c6.055,0,12.058,0,18.208,0c0,2.845,0,5.449,0,8.254c-6.098,0-12.101,0-18.236,0c0,3.151,0,6.11,0,9.327c6.584,0,13.161,0,19.878,0
		c0,2.859,0,5.464,0,8.271c-2.77,0-5.464,0-8.469,0c2.007,10.388,3.964,20.52,5.921,30.652c0.188,0.008,0.377,0.015,0.565,0.023
		c1.237-10.133,2.472-20.265,3.743-30.665c3.345,0,6.51,0,9.675,0C163.38,147.968,163.544,147.981,163.707,147.995z"/>
	<path fill-rule="evenodd" clip-rule="evenodd" fill="#222222" d="M163.707,147.995c-0.163-0.014-0.327-0.027-0.492-0.041
		c0-14.338,0-28.677,0-43.259c5.13,0,10.103-0.046,15.072,0.072c0.485,0.011,1.12,0.947,1.399,1.592
		c4.019,9.272,7.983,18.566,11.969,27.851c0.304,0.707,0.668,1.386,1.006,2.075c0.161-0.041,0.325-0.083,0.488-0.125
		c0-10.402,0-20.804,0-31.339c3.478,0,6.685,0,10.192,0c0,0.821,0,1.607,0,2.393c0,12.518-0.054,25.036,0.038,37.555
		c0.023,3.094,0.533,6.184,0.782,9.278c0.054,0.655-0.054,1.323-0.099,2.243c-6.628,0-13.139,0-19.745,0c0,3.161,0,6.059,0,9.148
		c6.016,0,11.955,0,18.082,0c0,2.782,0,5.383,0,8.229c-5.948,0-11.939,0-18.053,0c0,3.202,0,6.163,0,9.379c6.498,0,13.005,0,19.67,0
		c0,2.795,0,5.343,0,8.074c-10.211,0-20.48,0-31.002,0c0-14.24,0-28.548,0-43.126C169.751,147.995,166.729,147.995,163.707,147.995z
		 M173.795,115.195c-0.115,0.036-0.229,0.07-0.345,0.104c0,10.857,0,21.714,0,32.66c4.696,0,9.258,0,14.174,0
		C182.948,136.884,178.373,126.04,173.795,115.195z"/>
	<path fill-rule="evenodd" clip-rule="evenodd" fill="#222222" d="M259.247,148.065c1.833,0,3.616,0,5.624,0
		c0-14.539,0-28.847,0-43.265c10.517,0,20.802,0,31.255,0c0,2.593,0,5.193,0,8.052c-6.579,0-13.148,0-19.847,0
		c0,3.144,0,6.036,0,9.226c6.061,0,12.113,0,18.292,0c0,2.846,0,5.398,0,8.212c-6.052,0-12.104,0-18.287,0c0,3.209,0,6.166,0,9.386
		c6.588,0,13.157,0,20.01,0c0,2.337-0.416,4.543,0.102,6.474c0.68,2.533-0.695,3.865-1.872,5.445
		c-3.467,4.662-6.918,9.338-10.462,13.935c-0.944,1.227-0.902,2.08-0.071,3.362c4.37,6.74,8.64,13.55,12.942,20.337
		c0.352,0.556,0.675,1.128,1.243,2.074c-2.974,0-5.687-0.308-8.312,0.071c-4.155,0.6-6.578-0.979-8.529-4.903
		c-2.719-5.464-6.104-10.563-9.212-15.813c-0.388-0.657-0.826-1.283-1.688-1.76c0,7.363,0,14.726,0,22.244
		c-3.822,0-7.416,0-11.188,0C259.247,176.877,259.247,162.588,259.247,148.065z M270.498,166.569
		c0.149,0.053,0.302,0.106,0.452,0.158c4.21-6.122,8.424-12.245,12.779-18.578c-4.66,0-8.938,0-13.231,0
		C270.498,154.407,270.498,160.489,270.498,166.569z"/>
	<path fill-rule="evenodd" clip-rule="evenodd" fill="#222222" d="M215.901,148.028c3.446,0,6.765,0,10.224,0
		c-0.207-0.338-0.246-0.488-0.33-0.523c-8.38-3.583-11.086-10.894-11.451-19.57c-0.121-2.889,0.122-5.865,0.669-8.702
		c1.742-9.056,6.958-14.123,15.731-15.211c5.199-0.646,10.366-0.138,15.265,2.037c5.088,2.26,7.728,6.386,7.648,11.967
		c-3.852,0-7.709,0-11.557,0c-1.56-4.726-4.245-6.505-9.042-5.945c-1.904,0.221-3.59,1.106-4.433,2.915
		c-0.896,1.923-1.716,3.986-2.036,6.077c-0.679,4.443-0.772,8.949,0.456,13.34c1.592,5.686,6.406,7.86,11.513,5.28
		c1.93-0.975,2.661-2.091,3.493-5.376c3.839,0,7.694,0,11.681,0c-0.103,7.482-4.404,11.146-10.411,13.614
		c1.154,0.085,2.308,0.171,3.563,0.265c0,2.667,0,5.219,0,8.042c-6.571,0-13.082,0-19.721,0c0,3.161,0,6.056,0,9.188
		c5.968,0,11.959,0,18.096,0c0,2.835,0,5.438,0,8.216c-5.992,0-11.934,0-18.052,0c0,3.175,0,6.184,0,9.444c6.487,0,12.998,0,19.65,0
		c0,2.79,0,5.338,0,8.053c-10.264,0-20.535,0-30.956,0C215.901,176.901,215.901,162.649,215.901,148.028z"/>
	<path fill-rule="evenodd" clip-rule="evenodd" fill="#A9A9A9" d="M83.108,96.121c-0.592,1.736-1.777,2.138-3.477,2.115
		c-7.066-0.097-14.133-0.039-21.199-0.046c-0.699-0.001-1.399-0.063-2.167-0.1c-0.295-2.05,0.555-3.295,1.912-4.431
		c2.859-2.394,3.011-1.448,1.451-5.602c-2.018-5.378-4.16-10.706-6.172-16.086c-0.551-1.474-1.316-2.083-2.885-2.038
		c-7.642,0.223-15.287,0.348-22.932,0.458c-1.131,0.018-1.773,0.432-2.182,1.561c-2.023,5.594-4.074,11.178-6.179,16.739
		c-0.53,1.396-0.254,2.132,1.121,2.595c2.406,0.811,4.776,1.739,7.167,2.597c0.903,0.325,1.484,0.773,1.148,1.932
		c-0.294,1.011-0.208,2.343-1.668,2.343c-8.166-0.002-16.331-0.044-24.496-0.082c-0.105,0-0.211-0.139-0.387-0.263
		c-0.007-2.01,0.471-3.708,2.632-4.316c4.708-1.323,7.191-4.673,9.014-9.363c7.196-18.51,14.729-36.875,22.108-55.305
		c0.846-2.112,1.211-4.264,0.153-6.51c-0.257-0.544-0.103-1.823,0.288-2.097c2.624-1.837,5.362-3.494,8.203-5.298
		c0.25,0.607,0.424,0.946,0.533,1.308c1.625,5.36,2.952,10.841,4.912,16.062c6.7,17.841,13.66,35.576,20.428,53.39
		c1.219,3.208,3.11,5.415,6.245,6.46c1.605,0.534,3.177,1.185,4.792,1.683c1.163,0.359,1.814,0.985,1.618,2.326L83.108,96.121z
		 M40.051,33.58c-0.229-0.018-0.459-0.035-0.688-0.051c-3.561,9.823-7.121,19.646-10.864,29.974c7.601,0,14.637,0,21.962,0
		C46.939,53.382,43.496,43.481,40.051,33.58z"/>
	<path fill-rule="evenodd" clip-rule="evenodd" fill="#A9A9A9" d="M297.43,96.148c-1.231,1.101-2.055,2.281-3.154,2.74
		c-3.754,1.564-7.609,1.279-11.07-0.776c-1.815-1.078-3.15-3.046-4.919-4.832c-0.533,0.433-1.369,1.14-2.229,1.808
		c-5.212,4.045-10.856,5.992-17.334,3.926c-7.293-2.327-11.54-10.761-9.218-18.367c0.893-2.928,2.536-5.324,5.322-6.383
		c6.813-2.59,13.669-5.067,20.56-7.421c3.08-1.054,3.253-0.877,3.054-4.377c-0.131-2.281-0.393-4.624-1.05-6.788
		c-1.813-5.969-7.882-7.766-13.677-6.282c-3.646,0.935-3.921,1.39-4.384,5.342c-0.268,2.29-0.63,4.578-1.135,6.821
		c-0.166,0.739-0.808,1.629-1.44,1.891c-0.444,0.183-1.458-0.417-1.848-0.959c-1.757-2.435-3.383-4.971-5.052-7.475
		c-0.762-1.143-0.668-2.077,0.491-2.936c5.336-3.954,11.015-7.231,17.39-8.852c10.994-2.793,20.181,4.608,20.438,16.509
		c0.177,8.292,0.212,16.598-0.087,24.882c-0.147,4.052,1.524,6.567,4.444,8.581C293.874,94.124,295.319,94.887,297.43,96.148z
		 M278.428,78.878c0.019,0,0.035,0,0.056,0c0-2.106-0.031-4.213,0.01-6.318c0.028-1.395-0.487-1.91-1.766-1.4
		c-4.589,1.834-9.295,3.41-13.728,5.594c-4.327,2.134-5.089,8.44-1.823,12.146c3.675,4.173,9.851,4.561,14.502,0.995
		c1.883-1.444,2.84-3.258,2.761-5.716C278.381,82.414,278.428,80.645,278.428,78.878z"/>
	<path fill-rule="evenodd" clip-rule="evenodd" fill="#A9A9A9" d="M83.089,96.154c1.31-0.908,2.54-1.993,3.942-2.696
		c5.542-2.774,4.566-1.013,4.624-7.32c0.102-11.087,0.018-22.175,0.104-33.261c0.014-1.81-0.63-2.556-2.243-2.848
		c-1.768-0.32-3.501-0.845-5.232-1.276c0.642-4.011,1.191-4.537,4.539-4.55c2.825-0.01,2.939-0.003,3.092-3.019
		c0.245-4.794,0.849-9.511,2.768-13.894c3.932-8.979,10.185-14.935,19.979-15.434c2.609-0.133,5.299,0.926,7.898,1.652
		c0.466,0.129,1.074,1.431,0.922,1.979c-0.836,2.996-1.784,5.97-2.926,8.851c-0.343,0.865-1.356,1.572-2.222,1.987
		c-0.232,0.112-1.19-1.027-1.569-1.737c-1.007-1.898-1.774-3.947-2.864-5.787c-0.419-0.706-1.432-1.371-2.215-1.429
		c-2.483-0.181-4.302,1.226-5.674,3.295c-2.222,3.351-2.977,7.23-3.369,11.164c-0.336,3.374-0.302,6.786-0.518,10.174
		c-0.111,1.737,0.601,2.252,2.161,2.219c3.5-0.075,7.001-0.028,10.503-0.016c0.689,0.002,1.379,0.07,2.088,0.109
		c-0.584,3.798-1.337,4.54-4.511,4.848c-2.708,0.263-5.406,0.637-8.112,0.925c-1.433,0.152-2.143,0.739-2.15,2.436
		c-0.052,12.103-0.174,24.204-0.319,36.306c-0.019,1.542,0.491,2.349,1.955,2.732c2.703,0.706,5.38,1.533,8.032,2.427
		c0.522,0.176,1.326,1.019,1.241,1.305c-0.3,1.003-0.864,1.952-1.479,2.8c-0.177,0.243-0.864,0.1-1.316,0.1
		c-8.299,0.003-16.598-0.021-24.896,0.023c-1.465,0.008-2.45-0.262-2.213-2.097L83.089,96.154z"/>
	<path fill-rule="evenodd" clip-rule="evenodd" fill="#222222" d="M0.371,134.416c3.588,0,7.192,0,10.79,0
		c1.004,5.753,5.412,6.987,9.86,5.768c1.834-0.505,3.324-1.61,3.569-3.824c0.208-1.887-0.847-3.617-3.065-4.437
		c-2.553-0.943-5.22-1.541-7.82-2.35c-1.98-0.616-3.953-1.272-5.895-2.009c-4.123-1.563-6.435-4.709-6.822-9.257
		c-0.42-4.931,1.184-9.013,5.348-11.601c5.103-3.169,10.731-3.237,16.404-2.584c3.056,0.351,5.948,1.303,8.438,3.317
		c2.783,2.252,4.122,5.745,3.617,9.693c-3.568,0-7.163,0-10.773,0c-1.039-4.154-2.662-5.267-7.063-5.045
		c-2.149,0.106-3.979,1.765-4.241,3.566c-0.252,1.726,0.73,3.461,2.965,4.232c3.554,1.228,7.21,2.13,10.816,3.195
		c0.932,0.274,1.859,0.588,2.754,0.976c4.423,1.92,6.912,5.317,7.154,10.414c0.25,5.229-1.9,9.062-6.235,11.516
		c-5.044,2.856-10.507,3.256-16.06,2.563c-2.099-0.264-4.229-0.76-6.202-1.548C2.844,144.977-0.138,139.885,0.371,134.416z"/>
	<path fill-rule="evenodd" clip-rule="evenodd" fill="#A9A9A9" d="M240.6,85.239c1.379,1.337,1.602,2.652,0.705,3.886
		c-2.032,2.794-4.183,5.496-6.321,8.203c-0.268,0.34-0.742,0.563-1.161,0.705c-11.018,3.726-23.476,1.706-31.341-7.091
		c-3.208-3.589-5.078-7.866-5.886-12.651c-1.505-8.923-0.2-17.261,5.389-24.412c4.864-6.226,11.433-9.427,18.888-10.77
		c5.957-1.074,11.754-0.482,17.334,2.02c3.007,1.348,3.25,1.756,2.373,5.091c-0.707,2.682-1.613,5.308-2.505,7.93
		c-0.256,0.749-0.653,1.521-1.184,2.073c-1.279,1.336-2.224,1.094-2.79-0.717c-0.927-2.971-1.864-5.947-2.583-8.976
		c-0.394-1.652-1.189-2.477-2.732-2.648c-6.896-0.768-12.665,1.464-16.974,7.255c-6.634,8.914-6.321,23.014,0.731,31.381
		c3.993,4.737,9.302,6.634,15.156,6.498c1.71-0.04,3.487-1.31,5.065-2.31C235.46,88.997,238.021,87.055,240.6,85.239z"/>
	<path fill-rule="evenodd" clip-rule="evenodd" fill="#222222" d="M85.551,118.049c-3.791,0-7.594,0-11.56,0
		c-0.888-4.684-4.08-6.088-8.257-6.006c-2.324,0.045-4.272,0.981-5.297,3.146c-0.902,1.913-1.651,4.007-1.961,6.102
		c-0.649,4.38-0.714,8.815,0.499,13.133c1.617,5.752,6.573,7.91,11.686,5.171c1.802-0.963,2.489-2.049,3.353-5.413
		c1.88,0,3.814,0,5.749,0c1.928,0,3.856,0,5.882,0c0.061,4.736-1.553,8.502-5.205,10.722c-8.002,4.87-16.462,5.492-24.922,1.419
		c-4.719-2.271-7.181-6.713-8.391-11.872c-1.338-5.711-1.346-11.454,0.199-17.127c2.013-7.386,6.704-11.766,13.91-13.046
		c5.662-1.006,11.246-0.547,16.593,1.75C83.021,108.255,85.88,112.765,85.551,118.049z"/>
	<path fill-rule="evenodd" clip-rule="evenodd" fill="#A9A9A9" d="M149.295,94.643c-0.145,3.34-0.343,3.554-3.104,3.554
		c-8.041,0-16.082,0.017-24.122-0.033c-0.754-0.004-1.503-0.429-2.255-0.658c0.414-1.081,0.556-2.5,1.306-3.164
		c1.155-1.021,2.69-1.621,4.131-2.218c1.357-0.562,1.821-1.458,1.816-2.957c-0.022-7.143,0.015-14.287,0.077-21.429
		c0.035-3.875,0.099-7.752,0.276-11.622c0.082-1.787-0.354-3.011-2.048-3.655c-0.845-0.322-1.602-0.888-2.409-1.325
		c-2.065-1.117-2.325-3.619-0.199-4.503c3.834-1.596,7.857-2.703,11.84-3.871c0.334-0.099,1.293,0.823,1.387,1.378
		c0.393,2.335,0.58,4.71,0.816,7.074c0.079,0.786,0.08,1.58,0.549,2.575c0.406-0.539,0.828-1.066,1.214-1.62
		c2.733-3.923,6.011-7.155,10.476-8.762c3.017-1.085,6.072-1.368,9.073,0.183c1.203,0.621,1.788,1.469,1.342,2.941
		c-1.06,3.494-2.001,7.029-3.149,10.489c-0.258,0.777-1.086,1.601-1.817,1.842c-0.382,0.126-1.262-0.877-1.684-1.534
		c-0.794-1.236-1.45-2.575-2.109-3.9c-1.208-2.423-2.63-3.037-5.052-1.887c-2.917,1.384-5.096,3.691-6.833,6.478
		c-1.129,1.809-1.654,3.74-1.63,5.958c0.086,8.096,0.033,16.192,0.035,24.288c0.001,3.078,0.008,3.068,2.775,3.82
		C143.117,92.931,146.23,93.799,149.295,94.643z"/>
	<path fill-rule="evenodd" clip-rule="evenodd" fill="#A9A9A9" d="M182.363,67.054c0,7.204,0.046,14.409-0.03,21.613
		c-0.02,1.792,0.611,2.76,2.211,3.275c1.669,0.538,3.329,1.149,4.912,1.912c0.547,0.263,1.296,1.227,1.178,1.609
		c-0.3,0.976-0.972,1.865-1.634,2.657c-0.204,0.244-0.868,0.074-1.32,0.074c-6.804,0.001-13.605,0.026-20.407-0.038
		c-0.778-0.007-1.551-0.511-2.329-0.783c0.499-1.111,0.742-2.54,1.556-3.256c1.157-1.018,2.707-1.567,4.134-2.211
		c1.164-0.524,1.629-1.31,1.626-2.662c-0.022-11.69-0.002-23.38,0.044-35.07c0.005-1.322-0.373-2.178-1.609-2.659
		c-1.091-0.422-2.168-0.938-3.146-1.586c-0.572-0.381-1.407-1.23-1.304-1.647c0.225-0.917,0.83-2.234,1.525-2.434
		c4.181-1.194,8.423-2.135,12.655-3.122c1.662-0.387,1.942,0.636,1.936,2.102c-0.037,7.408-0.017,14.816-0.017,22.225
		C182.35,67.054,182.356,67.054,182.363,67.054z"/>
	<path fill-rule="evenodd" clip-rule="evenodd" fill="#A9A9A9" d="M176.809,33.163c-2.16,0.119-7.458-6.242-6.634-7.875
		c0.979-1.944,2.331-3.766,3.817-5.33c3.262-3.431,3.871-3.417,6.943,0.2c3.857,4.54,3.77,4.787-0.054,9.446
		c-0.839,1.021-1.846,1.899-2.824,2.782C177.631,32.77,177.079,32.999,176.809,33.163z"/>
	<path display="none" fill-rule="evenodd" clip-rule="evenodd" fill="#FEFEFE" d="M173.795,115.195
		c4.578,10.845,9.153,21.688,13.829,32.765c-4.916,0-9.478,0-14.174,0c0-10.946,0-21.803,0-32.66
		C173.566,115.266,173.68,115.231,173.795,115.195z"/>
	<path display="none" fill-rule="evenodd" clip-rule="evenodd" fill="#FDFDFD" d="M270.498,166.569c0-6.08,0-12.162,0-18.42
		c4.294,0,8.571,0,13.231,0c-4.355,6.333-8.569,12.456-12.779,18.578C270.8,166.676,270.647,166.622,270.498,166.569z"/>
	<path display="none" fill-rule="evenodd" clip-rule="evenodd" fill="#FEFEFE" d="M40.051,33.58
		c3.445,9.901,6.889,19.802,10.41,29.923c-7.325,0-14.361,0-21.962,0c3.743-10.328,7.303-20.151,10.864-29.974
		C39.592,33.545,39.821,33.563,40.051,33.58z"/>
	<path display="none" fill-rule="evenodd" clip-rule="evenodd" fill="#FEFEFE" d="M278.428,78.878c0,1.767-0.047,3.536,0.012,5.3
		c0.079,2.458-0.878,4.271-2.761,5.716c-4.651,3.565-10.827,3.178-14.502-0.995c-3.266-3.706-2.504-10.012,1.823-12.146
		c4.433-2.184,9.139-3.76,13.728-5.594c1.278-0.51,1.794,0.006,1.766,1.4c-0.041,2.105-0.01,4.212-0.01,6.318
		C278.463,78.878,278.446,78.878,278.428,78.878z"/>
</g>
</svg>
