<?xml version="1.0" encoding="utf-8"?>
<!-- Generator: Adobe Illustrator 16.0.0, SVG Export Plug-In . SVG Version: 6.00 Build 0)  -->
<!DOCTYPE svg PUBLIC "-//W3C//DTD SVG 1.1//EN" "http://www.w3.org/Graphics/SVG/1.1/DTD/svg11.dtd">
<svg version="1.1" id="Layer_1" xmlns="http://www.w3.org/2000/svg" xmlns:xlink="http://www.w3.org/1999/xlink" x="0px" y="0px"
	 width="300px" height="210px" viewBox="0 0 300 210" enable-background="new 0 0 300 210" xml:space="preserve">
<g>
	<g>
		<g>
			<path fill="#393A39" d="M61.262,100.69c0.874-13.638,5.121-26.138,12.604-37.56c7.146-10.908,16.472-19.521,27.552-26.301
				c0.509-0.311,1.036-0.59,1.895-1.077c-0.403,2.686-0.748,4.984-1.093,7.283c-0.445,2.216-0.892,4.432-1.337,6.648
				c0.166,0.042,0.332,0.084,0.497,0.127c0.413-1.631,0.825-3.263,1.237-4.895c0.448-1.405,0.896-2.81,1.345-4.214
				c0.447-1.398,0.896-2.794,1.476-4.603c1.815,2.345,3.437,4.438,5.058,6.533c0.43,0.672,0.859,1.342,1.29,2.014
				c0.13-0.081,0.26-0.163,0.39-0.243c-0.46-0.814-0.918-1.628-1.377-2.443l0-0.002c-0.125-0.246-0.249-0.491-0.374-0.736
				c-0.938-1.915-1.876-3.83-3-6.124c4.607,0.73,8.791,1.394,12.975,2.058c0.029-0.101,0.057-0.2,0.084-0.3
				c-3.809-1.211-7.617-2.42-11.792-3.747c0.71-0.437,1.074-0.714,1.479-0.901c14.865-6.864,30.487-9.648,46.804-8.662
				c12.704,0.768,24.789,3.931,36.205,9.55c9.638,4.745,18.248,10.919,25.525,18.876c-0.313,3.069-0.389,6.183-0.982,9.197
				c-1.632,8.276-5.421,15.606-10.536,22.242c-2.447,3.178-5.072,6.228-7.77,9.197c-1.474,1.623-2.823,3.464-4.951,4.378
				c-0.118,0-0.235,0.018-0.349,0.052c-0.389,0.102-0.777,0.203-1.167,0.305c-0.356,0.034-0.714,0.068-1.072,0.104
				c-0.256,0.094-0.513,0.187-0.769,0.279c-0.237,0.016-0.473,0.032-0.71,0.047c-0.51,0.107-1.021,0.213-1.53,0.32
				c-0.362,0.028-0.723,0.057-1.084,0.085c-0.513,0.092-1.026,0.185-1.538,0.276c-2.1,0.117-4.198,0.289-6.301,0.34
				c-7.447,0.182-14.852-0.352-22.192-1.597c-6.956-1.181-13.895-2.461-20.833-3.733c-2.481-0.455-4.941-1.015-7.558-1.558
				c0-1.393,0-2.621,0-3.849c0.246-4.713,0.491-9.426,0.758-14.551c5.045,4.466,9.749,8.631,14.452,12.795
				c1.188,1.154,2.376,2.308,3.563,3.462c0.105-0.109,0.21-0.218,0.316-0.328c-1.147-1.19-2.295-2.381-3.442-3.571
				c-4.037-4.78-8.412-9.272-12.635-14.436c10.771-0.569,21.06-1.114,31.346-1.657c-10.386-0.868-20.776-1.28-31.501-1.966
				c3.757-4.236,7.202-8.121,10.646-12.004c1.639-1.761,3.279-3.523,4.918-5.284c-0.105-0.101-0.21-0.201-0.315-0.301
				c-1.827,1.696-3.653,3.392-5.481,5.087c-3.863,3.428-7.726,6.857-11.919,10.578c-0.533-10.831-1.043-21.193-1.553-31.557
				c-0.619,5.14-0.874,10.294-1.159,15.447c-0.287,5.19-0.369,10.396-0.913,15.919c-4.557-4.03-8.772-7.758-12.988-11.486
				c-0.137-0.121-0.274-0.242-0.41-0.362l0.005,0.005c-0.134-0.108-0.267-0.215-0.4-0.323l-0.029-0.019
				c-0.118-0.105-0.236-0.209-0.354-0.313l-0.051-0.05c-0.107-0.103-0.215-0.206-0.324-0.309l-0.065-0.06
				c-0.097-0.094-0.192-0.187-0.288-0.281c-0.113-0.106-0.226-0.213-0.339-0.32c-0.855-0.815-1.711-1.631-2.567-2.447
				c-0.091,0.093-0.183,0.187-0.274,0.281c0.919,0.94,1.838,1.881,2.757,2.822c0.18,0.213,0.359,0.427,0.54,0.642
				c0.099,0.104,0.197,0.209,0.295,0.314l0.042,0.041c0.109,0.116,0.217,0.231,0.326,0.347l0.025,0.032
				c0.113,0.118,0.225,0.237,0.337,0.356c3.83,4.33,7.66,8.659,11.793,13.332c-10.88,0.548-21.287,1.07-31.695,1.593
				c0.001,0.093,0.002,0.186,0.003,0.279c10.405,0.563,20.811,1.126,31.691,1.714c-5.023,5.611-9.748,10.892-14.473,16.17
				c-0.103,0.125-0.206,0.25-0.309,0.375c-0.126,0.141-0.252,0.281-0.378,0.422c-0.863-0.058-1.728-0.097-2.588-0.175
				c-6.608-0.605-13.212-0.861-19.798,0.24c-8.296,1.387-15.813,4.462-22.078,10.234c-1.109,1.022-2.192,2.073-3.382,3.201
				C61.382,101.411,61.323,101.051,61.262,100.69z M151.372,53.132c0.883-0.723,1.768-1.446,2.651-2.167
				c1.696-1.377,3.393-2.753,5.354-4.345c0.335,4.724,0.639,9.019,0.945,13.315c0.084-0.004,0.168-0.009,0.254-0.014
				c0.296-4.328,0.591-8.655,0.907-13.29c2.164,1.746,3.987,3.217,5.813,4.689c0.681,0.774,1.345,1.565,2.298,1.975
				c0.096-0.1,0.189-0.201,0.282-0.301c-0.694-0.723-1.387-1.446-2.081-2.169c-1.465-1.766-2.929-3.532-4.647-5.604
				c4.851-0.374,9.225-0.711,13.599-1.047c-0.005-0.087-0.009-0.174-0.014-0.262c-4.41-0.318-8.82-0.636-13.65-0.982
				c1.7-2.037,3.146-3.769,4.591-5.499c0.73-0.806,1.462-1.612,2.192-2.418c-0.118-0.11-0.238-0.221-0.356-0.332
				c-0.724,0.685-1.448,1.369-2.171,2.052c-1.825,1.521-3.649,3.042-5.763,4.802c-0.354-4.897-0.68-9.368-1.006-13.838
				c-0.654,4.504-0.617,9.047-1.242,13.834c-1.714-1.404-3.14-2.573-4.565-3.741c-0.97-1.203-2.155-2.131-3.622-2.731
				c1.07,1.171,2.14,2.342,3.211,3.514c1.114,1.336,2.228,2.675,3.586,4.305c-4.919,0.37-9.364,0.704-13.809,1.039
				c0,0.082,0,0.165-0.001,0.248c4.408,0.322,8.815,0.646,13.588,0.995c-1.55,1.955-2.872,3.623-4.194,5.291
				c-0.731,0.88-1.461,1.76-2.192,2.639c-0.037,0.029-0.073,0.057-0.112,0.085c0.024,0.024,0.048,0.047,0.072,0.071
				C151.315,53.207,151.343,53.17,151.372,53.132z"/>
			<path fill="#959595" d="M194.466,96.983c2.127-0.915,3.477-2.755,4.95-4.378c2.698-2.969,5.322-6.019,7.77-9.197
				c5.115-6.636,8.905-13.966,10.537-22.242c0.593-3.013,0.668-6.128,0.981-9.197c1.212,1.322,2.531,2.564,3.599,3.994
				c0.681,0.912,1.061,2.078,1.453,3.172c1.5,4.179,2.224,8.523,2.276,12.937c0.068,5.775-1.277,11.287-3.535,16.601
				c-2.495,5.878-6.11,11.036-10.111,15.947c-5.96,7.318-12.738,13.854-19.566,20.348c-5.704,5.421-11.356,10.903-16.854,16.532
				c-6.066,6.212-11.654,12.86-16.149,20.316c-2.939,4.877-5.546,9.954-6.967,15.536c-1.124,2.897-1.813,5.886-2.015,9.23
				c0.541-0.301,0.898-0.498,1.253-0.696c0.359,0.029,0.718,0.058,1.078,0.088c-0.108-0.272-0.214-0.547-0.319-0.818
				c0.758-0.845,1.516-1.689,2.274-2.534c0.119-0.065,0.238-0.13,0.359-0.196c-0.021,0.07-0.032,0.141-0.031,0.213
				c0.569,0.663,1.116,0.816,1.768-0.082c-0.44-0.18-0.759-0.311-1.077-0.442c0-0.109-0.006-0.22-0.014-0.329l0.041-0.03
				c0.115-0.109,0.23-0.22,0.343-0.33c0.379-0.258,0.761-0.515,1.141-0.773c0.354,0.045,0.707,0.091,1.063,0.136
				c0.006-0.318,0.011-0.636,0.018-0.955c2.501-1.812,5.002-3.626,7.503-5.44c-0.12,1.418-0.774,2.438-2.151,2.952
				c-0.333,0.126-0.686,0.317-0.914,0.58c-1.152,1.326-2.291,2.666-3.383,4.042c-0.436,0.55-0.083,1.197,0.722,1.275
				c0.919,0.09,1.854,0.015,2.777,0.063c0.613,0.032,1.222,0.153,1.833,0.235c0.001,0.148,0.002,0.299,0.004,0.447
				c-0.56,0.192-1.125,0.365-1.676,0.582c-0.554,0.219-1.091,0.597-0.729,1.238c0.395,0.701,0.884,0.245,1.384-0.062
				c1.426-0.877,2.903-1.363,4.429-0.175c-2.652,0.466-5.287,1.178-7.957,1.347c-4.905,0.31-9.83,0.312-14.748,0.407
				c-0.66,0.013-1.323-0.177-1.985-0.274c1.657-0.138,3.32-0.228,4.97-0.43c1.252-0.155,1.363-0.475,1.283-1.725
				c-0.233-3.608-0.439-7.221-0.576-10.833c-0.039-1.034,0.451-2.135,0.24-3.105c-0.319-1.473,0.01-2.812,0.235-4.202
				c0.107-0.666,0.192-1.34,0.238-2.015c0.254-3.709,1.033-7.305,2.207-10.828c0.151-0.457,0.001-1.016-0.01-1.529
				c1.165-3.248,2.585-6.432,3.425-9.761c0.883-3.508,1.396-7.139,1.729-10.748c0.317-3.429,0.211-6.901-0.617-10.296l-0.019-0.008
				c0.132-0.127,0.264-0.253,0.395-0.378c4.246-0.14,8.495-0.287,12.742-0.418c1.032-0.031,1.896-0.342,2.63-1.128
				c2.314-2.477,4.673-4.915,7.008-7.374c0.209-0.22,0.371-0.485,0.554-0.731c0.894-0.629,1.813-1.222,2.673-1.892
				c2.829-2.198,4.184-5.866,7.512-7.577c0.05-0.026,0.087-0.087,0.117-0.139c1.155-1.938,2.689-3.507,4.898-4.74
				C194.931,97.079,194.697,97.031,194.466,96.983z M158.677,185.408c-0.99-0.929-1.93-0.615-2.857-0.286
				c-0.573,0.205-0.763,0.616-0.489,1.169c0.291,0.586,0.751,0.83,1.359,0.456C157.303,186.368,157.89,185.941,158.677,185.408z"/>
			<path fill="#A4A4A4" d="M194.466,96.983c0.231,0.048,0.466,0.096,1.006,0.207c-2.208,1.234-3.743,2.803-4.897,4.74
				c-0.03,0.052-0.067,0.114-0.117,0.14c-3.329,1.711-4.683,5.379-7.512,7.578c-0.861,0.67-1.78,1.263-2.674,1.892
				c-2.796,0.517-5.58,1.117-8.391,1.532c-5.779,0.854-11.581,0.829-17.405,0.41c-10.896-0.784-21.542-3.066-32.231-5.129
				c-7.349-1.419-14.7-2.956-22.184-3.416c-8.563-0.527-17.095-0.333-25.277,2.798c-3.776,1.446-7.338,3.283-10.61,5.667
				c-0.643,0.471-1.293,0.93-2.201,1.58c-0.214-0.978-0.483-1.719-0.523-2.471c-0.185-3.581-0.316-7.166-0.44-10.751
				c-0.012-0.353,0.165-0.713,0.255-1.069c0.06,0.361,0.12,0.721,0.208,1.255c1.189-1.128,2.272-2.179,3.381-3.202
				c6.264-5.771,13.781-8.847,22.078-10.234c6.586-1.101,13.19-0.845,19.799-0.24c0.861,0.078,1.725,0.118,2.588,0.175
				c0.126-0.141,0.252-0.282,0.378-0.423c0.103-0.125,0.206-0.25,0.309-0.374c0.021,0.146,0.042,0.29,0.062,0.436
				c0.433,0.252,0.839,0.653,1.301,0.734c4.436,0.768,8.879,1.485,13.323,2.206c0.764,0.124,1.537,0.192,2.539,0.315
				c0-1.738,0-3.264,0-4.789c0.124,1.404,0.213,2.812,0.404,4.206c0.044,0.328,0.441,0.607,0.675,0.909
				c0.234-0.296,0.603-0.563,0.675-0.894c0.193-0.891,0.261-1.81,0.379-2.717c0,1.229,0,2.457,0,3.849
				c2.617,0.543,5.077,1.104,7.558,1.558c6.938,1.273,13.877,2.553,20.833,3.733c7.341,1.246,14.745,1.779,22.192,1.597
				c2.103-0.052,4.201-0.223,6.301-0.34c0.513-0.091,1.025-0.183,1.538-0.276c0.361-0.028,0.722-0.057,1.085-0.085
				c0.509-0.107,1.02-0.213,1.529-0.32c0.237-0.016,0.474-0.032,0.71-0.047c0.257-0.093,0.513-0.186,0.77-0.279
				c0.357-0.034,0.714-0.069,1.072-0.104c0.389-0.102,0.778-0.203,1.166-0.305C194.229,97,194.347,96.983,194.466,96.983z"/>
			<path fill="#959595" d="M153.525,178.053c3.427-8.315,8.174-15.773,14.159-22.508c5.577-6.274,11.813-11.806,18.229-17.172
				c7.216-6.037,14.532-11.963,21.57-18.2c6.929-6.139,13.138-12.979,17.689-21.129c4.067-7.289,6.452-15.106,6.909-23.473
				c0.05-0.91,0.094-1.821,0.157-3.042c1.466,1.026,1.758,2.399,2.181,3.591c1.32,3.729,2.745,7.45,3.671,11.285
				c0.894,3.712,1.215,7.562,1.798,11.349c0.62,4.02-0.134,7.879-1.322,11.695c-1.871,5.997-4.964,11.303-9.044,16.053
				c-5.741,6.688-12.588,12.088-20.03,16.704c-7.829,4.861-15.828,9.448-23.744,14.17c-7.708,4.599-15.538,9.032-22.333,14.966
				c-2.691,2.35-5.102,5.021-7.638,7.546c-0.119,0.137-0.238,0.276-0.357,0.413l0.005-0.005c-0.117,0.131-0.236,0.262-0.353,0.394
				h-0.002c-0.113,0.128-0.228,0.256-0.342,0.385l-0.017,0.016c-0.111,0.118-0.223,0.235-0.334,0.352
				c-0.046,0.104-0.086,0.209-0.12,0.314c-0.902,1.104-1.808,2.206-2.712,3.31c-0.068-0.028-0.138-0.058-0.206-0.087
				C152.068,182.669,152.797,180.36,153.525,178.053z"/>
			<path fill="#8C8C8C" d="M111.943,179.285c-4.241-2.255-8.481-4.514-12.723-6.771c0.586,0.032,1.175,0.045,1.759,0.103
				c0.572,0.056,1.14,0.152,1.833,0.248c-0.073-0.514-0.068-0.767-0.146-0.988c-1.865-5.357-2.287-10.841-1.353-16.421
				c0.172-1.024-0.366-1.296-1.11-1.575c-3.197-1.2-5.831-3.188-8.031-5.778c-0.337-0.397-0.73-0.745-1.188-1.207
				c-0.421,0.621-0.768,1.052-1.029,1.531c-1.729,3.168-3.005,6.481-3.352,10.119c-0.114,1.202-0.472,2.382-0.718,3.57
				c-0.492-0.506-0.983-1.011-1.475-1.516c0.486-5.013,2.489-9.41,5.518-13.363c0.571-0.746,0.626-1.269,0.246-2.137
				c-0.665-1.521-1.16-3.127-1.594-4.733c-0.444-1.646-0.408-1.701-2.042-1.723c-3.404-0.042-6.601,0.813-9.686,2.207
				c-2.144,0.969-2.423,1.358-2.034,3.694c0.293,1.765,0.672,3.518,1.013,5.276l0.019-0.019c-0.237-0.024-0.476-0.051-0.713-0.074
				c-1.143-1.889-2.324-3.752-3.417-5.666c-1.155-2.023-2.225-4.096-3.332-6.146c-0.088-7.542,2.858-14.008,7.406-19.753
				c2.055-2.594,4.711-4.712,7.095-7.047c0.849-0.117,1.696-0.321,2.547-0.341c9.268-0.208,18.351,1.245,27.39,3.084
				c2.908,0.591,5.817,1.177,8.726,1.767c2.909,1.982,4.41,4.95,5.57,8.114c1.754,4.781,1.851,9.661,0.659,14.593
				c-0.409,1.688-0.323,1.753,1.088,2.446c6.438,3.163,13.267,4.188,20.371,3.845c1.579-0.075,2.444-0.722,2.954-2.245
				c2.304-6.892,3.371-13.914,2.54-21.174l-0.023,0.006c0.49-0.008,0.979-0.013,1.468-0.019l-0.009-0.011
				c0.418,3.432,0.69,6.847,0.513,10.335c-0.266,5.242-1.261,10.276-2.965,15.227c-3.087,8.969-8.5,16.327-15.654,22.383
				C130.566,175.475,121.833,178.941,111.943,179.285z M90.373,127.127c-0.694-0.056-1.419,0.004-2.076-0.184
				c-3.115-0.89-6.222-0.956-9.294,0.08c-0.628,0.212-1.309,0.759-1.621,1.337c-1.519,2.811-2.139,5.91-2.611,9.034
				c-0.104,0.688-0.016,1.407-0.016,2.371c4.312-1.641,8.428-2.201,12.669-1.646c0.755,0.099,0.953-0.391,1.025-1.006
				c0.091-0.795,0.173-1.591,0.286-2.384c0.366-2.584,1.691-4.744,3.066-6.88c0.508-0.451,1.068-0.857,1.517-1.359
				c3.385-3.775,10.403-5.055,15.41-2.092c4.842,2.863,6.974,8.232,5.043,13.379c-2.155,5.744-9.302,7.707-13.684,3.679
				c-3.326-3.057-2.777-8.562,1.186-10.5c2.613-1.276,5.756-0.021,6.743,2.692c0.674,1.855-0.336,3.859-2.541,4.577
				c0.389-0.362,0.601-0.543,0.794-0.743c1.345-1.392,1.579-2.688,0.724-3.991c-1.017-1.552-2.68-2.16-4.348-1.593
				c-2.586,0.881-3.822,4.285-2.402,6.616c1.514,2.485,5.227,3.425,7.698,1.946c3.129-1.871,4.31-6.283,2.535-9.473
				c-2.137-3.84-7.682-5.597-11.509-3.435c-5.357,3.026-7.179,8.833-4.802,14.229c2.908,6.604,11.34,9.547,17.982,6.653
				c2.481-1.081,4.436-2.738,6.076-4.767c3.271-4.047,4.614-8.689,3.857-13.885c-0.779-5.343-3.671-9.43-7.848-12.605
				c-5.893-4.482-12.62-5.67-19.723-4.018c-5.703,1.327-10.077,4.881-13.659,9.431c-0.508,0.646-0.942,1.348-1.411,2.025
				c0.049,0.13,0.099,0.26,0.148,0.391C83.499,124.296,86.988,125.476,90.373,127.127z M116.375,153.105
				c2.252,3.273,4.853,5.908,7.792,8.163c2.597,1.993,5.374,3.747,8.452,4.966c0.96,0.379,1.722,0.304,2.563-0.358
				c3.315-2.611,6.41-5.437,9.023-8.769c2.134-2.72,3.849-5.69,5.644-8.993c-0.949-0.057-1.604-0.096-2.26-0.134
				c-1.232-0.073-2.475-0.077-3.697-0.232c-5.604-0.704-10.783-2.622-15.6-5.562c-1.358-0.828-1.565-0.779-2.263,0.617
				c-1.518,3.04-3.627,5.597-6.203,7.771C118.795,151.445,117.649,152.18,116.375,153.105z M102.544,154.793
				c-0.104,0.42-0.236,0.711-0.241,1.001c-0.084,5.911,1.061,11.549,3.721,16.862c0.495,0.989,1.25,1.256,2.241,1.316
				c7.258,0.45,14.169-0.817,20.659-4.166c0.511-0.265,0.979-0.615,1.611-1.02c-0.578-0.422-0.925-0.667-1.264-0.923
				c-2.313-1.745-4.732-3.366-6.909-5.267c-2.525-2.204-4.552-4.882-6.275-7.77c-0.47-0.789-0.908-1.476-2.033-0.963
				c-3.22,1.467-6.622,1.325-10.031,1.041C103.55,154.868,103.077,154.833,102.544,154.793z"/>
			<path fill="#959595" d="M168.529,185.569c-1.524-1.188-3.003-0.703-4.429,0.175c-0.5,0.308-0.989,0.764-1.383,0.062
				c-0.362-0.642,0.174-1.019,0.728-1.238c0.551-0.218,1.116-0.39,1.677-0.581c-0.002-0.149-0.003-0.3-0.005-0.449
				c-0.61-0.08-1.219-0.202-1.833-0.234c-0.923-0.049-1.858,0.026-2.777-0.064c-0.805-0.077-1.156-0.725-0.722-1.273
				c1.091-1.377,2.231-2.716,3.384-4.043c0.228-0.262,0.581-0.454,0.913-0.58c1.378-0.515,2.031-1.532,2.151-2.951
				c3.768-2.115,7.419-4.484,11.326-6.294c9.265-4.285,18.719-8.159,27.97-12.47c8.664-4.037,16.339-9.576,22.902-16.562
				c1.99-2.118,3.788-4.418,5.678-6.63c0.298-0.349,0.62-0.675,1.194-0.86c-0.199,0.626-0.366,1.264-0.599,1.877
				c-3.021,7.949-7.496,15.049-12.853,21.603c-6.295,7.705-13.818,14.025-22.347,19.103c-5.16,3.071-10.601,5.63-16.273,7.648
				c-4.086,1.452-8.224,2.727-12.497,3.508C170.01,185.447,169.266,185.485,168.529,185.569z"/>
			<path fill="#8B8B8B" d="M126.426,116.663c3.261,0.658,6.504,1.44,9.79,1.944c5.481,0.847,10.991,1.513,16.488,2.265
				c0.422,0.057,0.833,0.203,1.249,0.306c0.006,2.659,0.1,5.321,0,7.976c-0.154,4.097-0.938,8.099-2.229,11.987
				c-0.816,2.453-1.099,2.617-3.719,2.705c-4.355,0.146-8.646-0.322-12.814-1.604c-2.286-0.705-4.642-1.287-6.609-2.639
				c-0.041-0.221-0.098-0.347-0.079-0.458c0.073-0.427,0.159-0.851,0.261-1.271c1.269-5.282,0.838-10.448-1.263-15.431
				c-0.738-1.751-1.813-3.363-2.777-5.013c-0.288-0.493-0.552-0.867,0.222-1.095l0.002,0.001
				C125.44,116.446,125.933,116.554,126.426,116.663z"/>
			<path fill="#8B8B8B" d="M152.426,152.381c0.011,0.513,0.161,1.071,0.01,1.53c-1.173,3.523-1.952,7.118-2.206,10.827
				c-0.045,0.675-0.131,1.349-0.238,2.015c-0.225,1.392-0.554,2.73-0.234,4.203c0.21,0.97-0.279,2.071-0.24,3.104
				c0.137,3.612,0.342,7.225,0.576,10.833c0.081,1.249-0.03,1.57-1.283,1.725c-1.649,0.202-3.312,0.292-4.969,0.431
				c-6.145-0.128-12.13-1.31-18.026-2.909c-3.682-0.997-7.284-2.287-10.922-3.446c-0.193-1.015,0.632-0.708,1.079-0.778
				c7.967-1.261,15.209-4.191,21.562-9.231c3.701-2.937,6.939-6.31,9.777-10.077c0.108-0.12,0.217-0.239,0.326-0.36l0.012-0.013
				c0.116-0.131,0.233-0.264,0.349-0.396l-0.013,0.014c0.125-0.145,0.25-0.29,0.375-0.435c-0.004-0.104,0.007-0.206,0.033-0.307
				c0.115-0.137,0.231-0.273,0.347-0.412c0.023-0.122,0.056-0.24,0.1-0.355c0.096-0.106,0.191-0.216,0.286-0.321
				c0.148-0.265,0.297-0.527,0.446-0.79c0.098-0.116,0.197-0.231,0.295-0.348c0.142-0.255,0.285-0.508,0.427-0.76
				c0.104-0.128,0.208-0.255,0.311-0.381c0.032-0.124,0.063-0.25,0.095-0.375c0.095-0.111,0.189-0.224,0.284-0.335
				c0.025-0.135,0.052-0.271,0.077-0.404c0.1-0.108,0.199-0.217,0.299-0.326l0.019-0.021c0.11-0.144,0.223-0.288,0.334-0.432
				c-0.001-0.111,0.016-0.22,0.047-0.326c0.106-0.146,0.211-0.293,0.318-0.439c-0.003-0.103,0.011-0.203,0.044-0.302
				c0.112-0.13,0.226-0.26,0.337-0.389L152.426,152.381z"/>
			<path fill="#8B8B8B" d="M97.416,170.653c-3.946-1.498-6.78-4.562-10-7.085c-0.463-5.45,0.754-10.464,3.735-15.312
				c2.413,2.967,5.174,4.906,8.348,6.259c0.907,0.387,0.915,1.053,0.804,1.829c-0.646,4.534-0.379,9.011,0.81,13.437
				c0.15,0.558,0.205,1.141,0.345,1.95C99.899,171.315,98.658,170.984,97.416,170.653z"/>
			<path fill="#8C8C8C" d="M67.326,135.23c-0.944-2.479-2.035-4.912-2.795-7.448c-0.885-2.95-1.521-5.979-2.186-8.993
				c-0.494-2.237-0.376-2.405,1.749-3.39c4.117-1.909,8.427-3.194,12.904-3.925c0.854-0.139,1.713-0.249,2.569-0.372
				c0.494,0.062,0.988,0.125,1.752,0.222c-5.06,4.193-8.774,8.979-11.238,14.688c-1.274,2.955-2.217,6.013-2.448,9.25l0.01,0.009
				C67.537,135.26,67.432,135.246,67.326,135.23z"/>
			<path fill="#8B8B8B" d="M83.292,159.447c-0.915-1.001-1.935-1.93-2.717-3.023c-1.174-1.642-2.182-3.402-3.26-5.112
				c-0.562-2.522-1.114-5.047-1.69-7.566c-0.178-0.778,0.063-1.292,0.763-1.68c3.156-1.745,6.598-2.354,10.133-2.605
				c0.74-0.051,1.049,0.32,1.237,1.054c0.379,1.488,0.831,2.967,1.405,4.389c0.372,0.92,0.27,1.574-0.314,2.365
				c-2.417,3.269-4.085,6.888-4.912,10.888C83.842,158.61,83.512,159.018,83.292,159.447z"/>
			<path fill="#B4B4B4" d="M102.616,44.916c-0.412,1.631-0.824,3.264-1.237,4.895c-0.166-0.043-0.331-0.085-0.497-0.127
				c0.445-2.216,0.892-4.433,1.337-6.648C102.352,43.663,102.483,44.29,102.616,44.916z"/>
			<path fill="#AFAFAF" d="M110.798,41.958c0.459,0.815,0.917,1.629,1.377,2.443c-0.13,0.081-0.26,0.162-0.39,0.243
				c-0.43-0.671-0.86-1.341-1.29-2.013C110.597,42.407,110.697,42.183,110.798,41.958z"/>
			<path fill="#959595" d="M158.731,179.831c-0.007,0.318-0.013,0.637-0.018,0.954c-0.354-0.044-0.71-0.09-1.063-0.135
				C158.011,180.378,158.371,180.104,158.731,179.831z"/>
			<path fill="#AFAFAF" d="M110.424,41.22c0.125,0.246,0.249,0.491,0.374,0.737C110.673,41.71,110.549,41.466,110.424,41.22z"/>
			<path fill="#BBBBBB" d="M154.761,37.79c-0.136,0.261-0.273,0.521-0.41,0.782c-1.071-1.171-2.142-2.342-3.212-3.514
				C152.606,35.658,153.791,36.587,154.761,37.79z"/>
			<path fill="#C2C1C1" d="M144.572,86.298c0.146-0.146,0.291-0.291,0.437-0.437c1.147,1.19,2.295,2.381,3.442,3.571
				c-0.106,0.109-0.211,0.219-0.316,0.328C146.948,88.606,145.761,87.452,144.572,86.298z"/>
			<path fill="#AAA9A8" d="M167.296,51.321c0.166-0.165,0.332-0.331,0.499-0.496c0.694,0.723,1.387,1.447,2.081,2.169
				c-0.093,0.101-0.187,0.201-0.282,0.301C168.641,52.886,167.976,52.095,167.296,51.321z"/>
			<path fill="#B6B7B7" d="M153.52,50.449c0.168,0.172,0.336,0.344,0.504,0.516c-0.884,0.721-1.769,1.444-2.651,2.167l-0.045-0.044
				C152.059,52.209,152.789,51.329,153.52,50.449z"/>
			<path fill="#ABABAB" d="M167.673,37.43c-0.112-0.232-0.225-0.466-0.335-0.698c0.723-0.683,1.447-1.368,2.17-2.051
				c0.119,0.11,0.237,0.221,0.356,0.331C169.135,35.818,168.402,36.624,167.673,37.43z"/>
			<path fill="#959595" d="M187.784,98.175c-0.513,0.092-1.025,0.185-1.538,0.276C186.759,98.359,187.271,98.268,187.784,98.175z"/>
			<path fill="#959595" d="M190.399,97.771c-0.511,0.107-1.021,0.213-1.53,0.319C189.379,97.983,189.889,97.877,190.399,97.771z"/>
			<path fill="#959595" d="M194.116,97.035c-0.389,0.102-0.777,0.204-1.166,0.305C193.339,97.238,193.728,97.137,194.116,97.035z"/>
			<path fill="#959595" d="M191.878,97.443c-0.256,0.093-0.513,0.186-0.769,0.279C191.365,97.629,191.621,97.537,191.878,97.443z"/>
			<path fill="#B6B7B7" d="M151.372,53.132c-0.029,0.038-0.057,0.075-0.085,0.112c-0.023-0.024-0.047-0.047-0.071-0.071
				c0.038-0.028,0.075-0.057,0.111-0.085L151.372,53.132z"/>
			<path fill="#959595" d="M158.677,185.408c-0.788,0.533-1.374,0.96-1.987,1.339c-0.608,0.374-1.068,0.13-1.359-0.456
				c-0.273-0.553-0.084-0.964,0.489-1.169C156.747,184.793,157.687,184.479,158.677,185.408z"/>
			<path fill="#959595" d="M155.451,182.637c0.12-0.155,0.239-0.311,0.36-0.466c0.109-0.019,0.219-0.037,0.33-0.059
				c0.317,0.133,0.636,0.265,1.076,0.443C156.567,183.455,156.02,183.301,155.451,182.637z"/>
			<path fill="#959595" d="M152.089,185.886c0.253-0.243,0.504-0.487,0.758-0.73c0.106,0.272,0.213,0.546,0.319,0.818
				C152.806,185.944,152.447,185.915,152.089,185.886z"/>
			<path fill="#393A39" d="M110.065,88.083c4.906-4.352,9.811-8.705,14.72-13.053c0.447-0.396,0.921-0.759,1.742-1.433
				c0.248,4.596,0.476,8.773,0.702,12.952c0,1.525,0,3.051,0,4.789c-1.001-0.123-1.774-0.191-2.539-0.315
				c-4.444-0.72-8.888-1.438-13.323-2.206C110.904,88.737,110.498,88.335,110.065,88.083z"/>
			<path fill="#959595" d="M152.118,152.784c0.111-0.129,0.226-0.26,0.337-0.389C152.344,152.524,152.229,152.655,152.118,152.784z"
				/>
			<path fill="#959595" d="M151.756,153.525c0.106-0.146,0.211-0.293,0.318-0.439C151.967,153.232,151.862,153.379,151.756,153.525z
				"/>
			<path fill="#959595" d="M151.375,154.283c0.11-0.144,0.223-0.288,0.334-0.432C151.598,153.995,151.485,154.14,151.375,154.283z"
				/>
			<path fill="#959595" d="M151.058,154.63c0.1-0.108,0.199-0.217,0.299-0.327C151.257,154.413,151.157,154.521,151.058,154.63z"/>
			<path fill="#959595" d="M150.697,155.368c0.094-0.11,0.189-0.224,0.284-0.335C150.887,155.145,150.792,155.258,150.697,155.368z"
				/>
			<path fill="#959595" d="M150.291,156.124c0.104-0.128,0.208-0.255,0.311-0.381C150.499,155.87,150.395,155.996,150.291,156.124z"
				/>
			<path fill="#959595" d="M149.568,157.231c0.098-0.116,0.197-0.231,0.295-0.348C149.765,157,149.666,157.115,149.568,157.231z"/>
			<path fill="#959595" d="M148.836,158.344c0.096-0.107,0.191-0.216,0.286-0.322C149.027,158.128,148.932,158.236,148.836,158.344z
				"/>
			<path fill="#959595" d="M148.39,159.11c0.115-0.137,0.231-0.273,0.347-0.411C148.621,158.837,148.505,158.974,148.39,159.11z"/>
			<path fill="#959595" d="M147.983,159.852c0.125-0.145,0.25-0.29,0.374-0.435C148.233,159.562,148.108,159.707,147.983,159.852z"
				/>
			<path fill="#959595" d="M147.647,160.234c0.116-0.131,0.232-0.264,0.349-0.396C147.879,159.971,147.763,160.104,147.647,160.234z
				"/>
			<path fill="#959595" d="M147.309,160.607c0.108-0.12,0.217-0.239,0.326-0.361C147.526,160.368,147.417,160.486,147.309,160.607z"
				/>
			<polygon fill="#8C8C8C" points="75.833,149.822 75.903,149.889 75.852,149.805 			"/>
			<path fill="#8C8C8C" d="M103.71,132.822c-0.21,0.12-0.424,0.235-0.631,0.36c-1.743,1.047-2.269,2.257-1.663,3.82
				c0.641,1.649,2.286,2.618,4.001,2.309c1.593-0.285,2.805-1.237,3.283-2.714c0.492-1.521,0.645-3.161-0.555-4.576
				c-1.769-2.088-4.092-2.874-6.481-2.142c-2.39,0.732-4.4,3.335-4.618,5.978c-0.254,3.074,1.399,6.02,4.208,7.501
				c4.289,2.262,9.134,1.006,12.121-3.142c3.036-4.216,2.571-10.131-1.1-14.012c-5.267-5.565-13.636-5.837-19.376-0.626
				c-1.412,1.281-1.425,1.305-3.125,0.352c-2.263-1.271-4.741-1.764-7.265-2.115c-0.354-0.05-0.711-0.093-1.241-0.161
				c1.022-1.994,2.576-3.339,4.102-4.639c4.557-3.885,9.812-6.035,15.873-5.619c8.746,0.603,15.387,4.646,18.971,12.771
				c2.279,5.166,1.467,12.854-3.476,17.98c-3.728,3.869-8.11,5.28-13.323,4.147c-4.823-1.049-9.992-5.996-9.368-11.954
				c0.476-4.545,4.475-9.306,9.678-8.832c4.788,0.434,7.942,5.049,6.28,9.3c-1.435,3.67-5.905,4.612-8.435,1.78
				C99.515,136.287,100.581,133.275,103.71,132.822z"/>
			<path fill="#959595" d="M103.017,136.165c0.012-1.229,0.444-1.712,1.365-1.522c0.254,0.052,0.656,0.555,0.602,0.732
				C104.694,136.335,103.859,135.994,103.017,136.165z"/>
			<path fill="#8C8C8C" d="M90.973,127.543l-0.14,0.045l-0.117-0.106C90.796,127.52,90.883,127.54,90.973,127.543z"/>
			<path fill="#8B8B8B" d="M127.353,142.614c6.311,4.101,13.323,6.013,21.099,6.433c-0.75,1.264-1.257,2.158-1.801,3.029
				c-3.142,5.031-7.061,9.355-11.767,12.978c-0.8,0.616-1.435,0.694-2.345,0.271c-5.357-2.484-9.967-5.939-13.787-10.442
				c-1.152-1.359-1.146-1.544,0.253-2.621c3.123-2.407,5.792-5.197,7.625-8.727C126.766,143.273,126.996,143.063,127.353,142.614z"
				/>
			<path fill="#8B8B8B" d="M103.411,155.958c0.547-0.051,0.862-0.152,1.144-0.095c3.139,0.635,6.156-0.036,9.132-0.905
				c0.959-0.28,1.456-0.091,1.957,0.74c1.798,2.985,3.99,5.667,6.62,7.952c1.673,1.455,3.471,2.763,5.217,4.134
				c0.332,0.259,0.682,0.498,1.294,0.944c-0.925,0.558-1.63,1.117-2.431,1.442c-5.337,2.174-10.896,3.152-16.665,3.038
				c-1.908-0.038-3.034-0.798-3.707-2.642c-1.493-4.091-2.744-8.207-2.656-12.617C103.328,157.343,103.373,156.735,103.411,155.958z
				"/>
			<path fill="#8B8B8B" d="M75.75,138.446c-0.056-3.495,0.926-6.646,2.347-9.675c0.21-0.447,0.743-0.917,1.216-1.04
				c3.495-0.917,6.962-0.987,10.301,0.668c0.098,0.049,0.15,0.187,0.323,0.409c-0.147,0.429-0.261,0.973-0.51,1.444
				c-0.936,1.77-1.618,3.611-1.737,5.624c-0.063,1.061-0.672,1.271-1.616,1.3c-2.28,0.071-4.563,0.172-6.83,0.406
				C78.1,137.7,76.988,138.129,75.75,138.446z"/>
		</g>
	</g>
</g>
</svg>
