<?xml version="1.0" encoding="utf-8"?>
<!-- Generator: Adobe Illustrator 16.0.0, SVG Export Plug-In . SVG Version: 6.00 Build 0)  -->
<!DOCTYPE svg PUBLIC "-//W3C//DTD SVG 1.1//EN" "http://www.w3.org/Graphics/SVG/1.1/DTD/svg11.dtd">
<svg version="1.1" id="Layer_1" xmlns="http://www.w3.org/2000/svg" xmlns:xlink="http://www.w3.org/1999/xlink" x="0px" y="0px"
	 width="300px" height="210px" viewBox="0 0 300 210" enable-background="new 0 0 300 210" xml:space="preserve">
<g>
	<g>
		<g>
			<path fill="#8C8C8C" d="M150.8,186.295c-12.157-12.224-24.286-24.475-36.477-36.661c-14.338-14.335-28.731-28.613-43.1-42.916
				c0-0.487,0-0.974,0-1.46c16.687-16.621,33.392-33.223,50.054-49.869c9.876-9.867,19.684-19.803,29.522-29.708
				c0.244,0,0.487,0,0.73,0c26.191,26.229,52.383,52.46,78.581,78.682c0.338,0.34,0.773,0.582,1.164,0.868
				c-0.956,1.349-1.744,2.867-2.896,4.021c-23.987,24.053-48.016,48.063-72.031,72.086c-1.629,1.63-3.214,3.303-4.818,4.957
				C151.287,186.295,151.044,186.295,150.8,186.295z M150.847,178.63c24.373-24.371,48.758-48.752,72.819-72.81
				c-24.008-24.032-48.387-48.434-72.103-72.172c-24.201,24.191-48.658,48.634-72.582,72.546
				c10.521,10.522,21.487,21.491,32.074,32.08c5.452-5.46,11.252-11.269,17.141-17.164c-0.534-0.773-1.267-1.832-1.978-2.86
				c0.871-1.136,1.6-2.086,2.382-3.108c-1.547-1.486-2.997-2.879-4.555-4.376c-1.005,0.735-2.053,1.5-3.067,2.241
				c-3.134-2.908-4.194-7.874-2.204-9.776c2.079-1.985,7.023-0.777,9.585,2.387c-0.731,1.041-1.474,2.097-2.285,3.251
				c1.587,1.505,3.028,2.872,3.748,3.555c2.972-2.567,5.747-4.963,8.579-7.409c-1.588-1.517-2.947-2.813-4.337-4.141
				c-1.182,0.783-2.17,1.438-3.309,2.193c-2.573-2.116-3.643-4.755-2.868-7.79c0.282-1.102,1.699-2.484,2.8-2.698
				c2.983-0.58,5.697,0.279,7.558,2.961c-0.736,1.255-1.38,2.354-2.111,3.601c1.912,1.602,3.613,4.247,5.37,4.284
				c7.083,0.151,14.238-0.625,19.913-5.537c4.025-3.488,2.525-10.512-2.354-12.367c-4.078-1.551-9.069,1.888-8.079,5.853
				c0.352,1.408,2.372,3.207,3.781,3.352c2.042,0.209,3.534-1.366,2.905-3.927c-0.149-0.605,0.078-1.301,0.155-2.234
				c2.782,0.775,2.998,2.604,2.58,4.596c-0.657,3.143-4.083,5.207-7.295,4.538c-5.916-1.231-8.276-7.813-4.478-12.486
				c3.389-4.17,9.289-5.262,13.802-2.365c3.943,2.53,6.498,6.114,5.828,10.965c-0.762,5.525-4.138,9.287-9.412,11.04
				c-2.517,0.838-5.212,1.252-7.861,1.562c-8.299,0.974-13.702,6.197-18.668,12.246c0.819,1.179,1.554,2.235,2.756,3.966
				c-6.915,6.724-13.768,13.389-20.38,19.819C127.038,154.797,139.135,166.906,150.847,178.63z"/>
			<path fill="#8E8D8D" d="M158.696,121.639c0.723-1.021,1.465-2.068,2.333-3.294c-0.93-0.886-1.871-1.614-2.593-2.518
				c-0.679-0.85-1.127-1.886-1.677-2.84c0.347-0.327,0.693-0.655,1.04-0.981c1.727,1.375,3.454,2.75,5.362,4.269
				c0.872-0.615,1.925-1.358,2.943-2.079c3.172,2.559,4.374,7.543,2.402,9.585C166.546,125.813,161.91,124.852,158.696,121.639z"/>
			<path fill="#8E8D8D" d="M151.007,128.366c-1.457-1.752-2.857-3.435-4.257-5.118c0.319-0.384,0.639-0.767,0.958-1.149
				c1.736,1.211,3.473,2.421,5.623,3.922c0.693-0.458,1.843-1.215,2.97-1.959c2.998,2.69,4.176,7.183,2.512,9.361
				c-1.608,2.103-6.366,1.395-10.035-1.676C149.509,130.635,150.266,129.488,151.007,128.366z"/>
		</g>
	</g>
</g>
</svg>
