<?xml version="1.0" encoding="utf-8"?>
<!-- Generator: Adobe Illustrator 16.0.0, SVG Export Plug-In . SVG Version: 6.00 Build 0)  -->
<!DOCTYPE svg PUBLIC "-//W3C//DTD SVG 1.1//EN" "http://www.w3.org/Graphics/SVG/1.1/DTD/svg11.dtd">
<svg version="1.1" id="Layer_1" xmlns="http://www.w3.org/2000/svg" xmlns:xlink="http://www.w3.org/1999/xlink" x="0px" y="0px"
	 width="300px" height="210px" viewBox="0 0 300 210" enable-background="new 0 0 300 210" xml:space="preserve">
<g>
	<g>
		<g>
			<path fill="#484848" d="M120.828,159.293c5.053-4.827,9.959-9.514,14.833-14.168c3.345,3.483,6.531,6.997,9.932,10.287
				c3.376,3.268,6.968,6.312,10.559,9.536c2.013-1.696,3.904-3.246,5.747-4.853c9.43-8.226,17.784-17.386,24.405-28.057
				c8.878-14.308,13.503-29.844,13.059-46.714c-0.141-5.334-1.099-10.646-1.63-15.974c-0.124-1.229-0.71-1.46-1.839-1.458
				c-22.066,0.032-44.131,0.024-66.195,0.024c-0.568,0-1.136,0-1.887,0c3.067-10.092,2.489-19.798-2.267-29.293
				c0.503-0.036,0.885-0.085,1.268-0.085c36.598-0.004,73.194-0.001,109.793-0.016c0.871,0,1.359,0.059,1.527,1.158
				c4.569,29.893-0.754,57.811-16.598,83.646c-8.366,13.642-18.803,25.554-30.471,36.434c-10.56,9.847-21.96,18.637-33.849,26.808
				c-0.63,0.435-1.076,0.614-1.817,0.102c-11.875-8.191-23.274-16.981-33.856-26.805
				C121.363,159.697,121.159,159.557,120.828,159.293z"/>
			<path fill="#C3C3C3" d="M63.156,55.547c0.008-16.712,13.402-30.042,30.179-30.03c16.685,0.012,30.03,13.443,30.015,30.209
				c-0.015,16.633-13.51,29.989-30.257,29.987C76.671,85.711,62.958,72.132,63.156,55.547z"/>
			<path fill="#484848" d="M76.056,87.879c12.783,6.01,25.07,5.582,37.396-1.418c0,1.789-0.057,3.374,0.009,4.953
				c0.595,14.3,4.978,27.433,12.342,39.62c1.627,2.691,3.453,5.265,5.212,7.874c0.348,0.52,0.595,0.875-0.008,1.442
				c-4.915,4.627-9.796,9.29-14.69,13.939c-0.057,0.055-0.139,0.084-0.357,0.211C97.208,135.683,82.607,114.365,76.056,87.879z"/>
		</g>
	</g>
</g>
</svg>
