<?xml version="1.0" encoding="utf-8"?>
<!-- Generator: Adobe Illustrator 16.0.0, SVG Export Plug-In . SVG Version: 6.00 Build 0)  -->
<!DOCTYPE svg PUBLIC "-//W3C//DTD SVG 1.1//EN" "http://www.w3.org/Graphics/SVG/1.1/DTD/svg11.dtd">
<svg version="1.1" id="Layer_1" xmlns="http://www.w3.org/2000/svg" xmlns:xlink="http://www.w3.org/1999/xlink" x="0px" y="0px"
	 width="300px" height="210px" viewBox="0 0 300 210" enable-background="new 0 0 300 210" xml:space="preserve">
<g display="none">
	<path fill="#FEFEFE" d="M-12.614,210.436c0-70.604,0-141.209,0-211.85c107.085,0,214.184,0,321.348,0c0,70.593,0,141.221,0,211.85
		C201.645,210.436,94.522,210.436-12.614,210.436z M83.108,96.121c-0.237,1.835,0.748,2.106,2.213,2.098
		c8.298-0.044,16.597-0.02,24.896-0.023c0.452,0,1.139,0.144,1.316-0.1c0.615-0.848,1.179-1.797,1.479-2.8
		c0.085-0.286-0.718-1.129-1.241-1.305c-2.652-0.894-5.329-1.721-8.032-2.427c-1.464-0.383-1.974-1.19-1.955-2.732
		c0.146-12.102,0.268-24.203,0.319-36.306c0.007-1.697,0.717-2.284,2.15-2.436c2.706-0.288,5.404-0.662,8.112-0.925
		c3.173-0.309,3.926-1.05,4.511-4.848c-0.709-0.039-1.399-0.107-2.088-0.109c-3.502-0.012-7.003-0.059-10.503,0.016
		c-1.56,0.033-2.272-0.482-2.161-2.219c0.216-3.389,0.182-6.801,0.518-10.174c0.392-3.933,1.146-7.813,3.369-11.164
		c1.373-2.069,3.191-3.476,5.674-3.295c0.784,0.058,1.796,0.723,2.215,1.429c1.09,1.84,1.857,3.889,2.864,5.787
		c0.379,0.71,1.337,1.85,1.569,1.737c0.866-0.416,1.879-1.122,2.222-1.987c1.142-2.881,2.09-5.854,2.926-8.851
		c0.152-0.548-0.456-1.849-0.922-1.979c-2.599-0.726-5.29-1.785-7.898-1.652c-9.793,0.499-16.047,6.455-19.979,15.434
		c-1.919,4.382-2.523,9.1-2.768,13.894c-0.153,3.016-0.268,3.009-3.092,3.019c-3.347,0.013-3.897,0.539-4.539,4.55
		c1.731,0.431,3.465,0.956,5.232,1.276c1.612,0.292,2.257,1.039,2.243,2.848c-0.087,11.086-0.003,22.173-0.104,33.261
		c-0.057,6.308,0.919,4.546-4.624,7.32c-1.402,0.703-2.632,1.788-3.942,2.696c0.196-1.34-0.455-1.967-1.618-2.326
		c-1.615-0.498-3.187-1.149-4.792-1.683c-3.135-1.045-5.026-3.251-6.245-6.46c-6.768-17.814-13.728-35.548-20.428-53.39
		c-1.96-5.221-3.287-10.702-4.912-16.062c-0.109-0.361-0.283-0.701-0.533-1.308c-2.841,1.805-5.579,3.461-8.203,5.298
		c-0.39,0.274-0.544,1.553-0.288,2.097c1.058,2.246,0.693,4.398-0.153,6.51c-7.379,18.43-14.913,36.795-22.108,55.305
		c-1.823,4.689-4.306,8.04-9.014,9.363c-2.162,0.608-2.639,2.307-2.632,4.316c0.176,0.124,0.281,0.263,0.387,0.263
		c8.165,0.038,16.33,0.079,24.496,0.082c1.46,0,1.374-1.332,1.668-2.343c0.336-1.158-0.245-1.607-1.148-1.932
		c-2.391-0.858-4.761-1.787-7.167-2.597c-1.375-0.462-1.65-1.198-1.121-2.595c2.104-5.561,4.155-11.146,6.179-16.739
		c0.408-1.128,1.05-1.543,2.182-1.561c7.646-0.11,15.291-0.235,22.932-0.458c1.569-0.046,2.334,0.564,2.885,2.038
		c2.013,5.38,4.154,10.708,6.172,16.086c1.56,4.154,1.408,3.208-1.451,5.602c-1.357,1.136-2.208,2.38-1.912,4.431
		c0.768,0.037,1.468,0.099,2.167,0.1c7.066,0.007,14.133-0.051,21.199,0.046C81.331,98.259,82.516,97.857,83.108,96.121z
		 M163.707,147.995c3.021,0,6.044,0,9.309,0c0,14.578,0,28.886,0,43.126c10.521,0,20.791,0,31.002,0c0-2.73,0-5.279,0-8.074
		c-6.664,0-13.172,0-19.67,0c0-3.216,0-6.177,0-9.379c6.113,0,12.104,0,18.053,0c0-2.846,0-5.445,0-8.229
		c-6.127,0-12.065,0-18.082,0c0-3.09,0-5.987,0-9.148c6.606,0,13.117,0,19.746,0c0.045-0.92,0.151-1.588,0.099-2.243
		c-0.249-3.095-0.759-6.185-0.782-9.278c-0.092-12.519-0.038-25.037-0.038-37.555c0-0.785,0-1.572,0-2.393
		c-3.508,0-6.715,0-10.192,0c0,10.535,0,20.937,0,31.339c-0.162,0.042-0.326,0.084-0.487,0.125
		c-0.338-0.688-0.702-1.368-1.006-2.075c-3.985-9.285-7.95-18.579-11.97-27.852c-0.278-0.645-0.914-1.582-1.398-1.591
		c-4.971-0.118-9.941-0.072-15.072-0.072c0,14.581,0,28.921,0,43.259c-3.165,0-6.33,0-9.675,0
		c-1.271,10.4-2.506,20.531-3.743,30.665c-0.188-0.009-0.377-0.017-0.565-0.022c-1.957-10.134-3.914-20.266-5.921-30.652
		c3.004,0,5.699,0,8.469,0c0-2.807,0-5.411,0-8.271c-6.717,0-13.293,0-19.878,0c0-3.217,0-6.176,0-9.326c6.135,0,12.138,0,18.236,0
		c0-2.806,0-5.41,0-8.255c-6.15,0-12.153,0-18.208,0c0-3.185,0-6.122,0-9.312c6.732,0,13.305,0,19.862,0c0-2.807,0-5.36,0-7.94
		c-10.463,0-20.796,0-31.168,0c0,14.408,0,28.662,0,43.191c2.97,0,5.83,0,8.861,0c-2.236,10.528-4.409,20.758-6.581,30.985
		c-0.533-0.658-0.718-1.28-0.794-1.916c-1.071-8.896-2.201-17.785-3.128-26.696c-0.206-1.984-0.844-2.479-2.618-2.382
		c-2.746,0.149-5.505,0.039-8.425,0.039c0-14.625,0-28.883,0-43.194c-3.82,0-7.461,0-11.075,0c0,14.433,0,28.684,0,43.164
		c3.618,0,7.088,0,10.498,0c0.128,0.416,0.21,0.602,0.242,0.798c2.212,13.588,4.446,27.17,6.588,40.771
		c0.226,1.428,0.762,1.754,2.006,1.727c3.241-0.068,6.49-0.143,9.724,0.025c1.723,0.088,2.303-0.6,2.677-2.241
		c2.136-9.375,4.37-18.724,6.581-28.079c0.105-0.443,0.308-0.86,0.647-1.783c0.307,1.229,0.485,1.872,0.629,2.527
		c2.057,9.254,4.148,18.498,6.12,27.773c0.313,1.473,0.9,1.818,2.216,1.783c3.239-0.088,6.489-0.145,9.724,0.02
		c1.687,0.084,2.215-0.564,2.477-2.195C159.189,175.432,161.459,161.715,163.707,147.995z M259.247,148.064
		c0,14.522,0,28.813,0,43.078c3.771,0,7.364,0,11.188,0c0-7.52,0-14.882,0-22.244c0.861,0.477,1.301,1.103,1.688,1.76
		c3.107,5.25,6.493,10.349,9.212,15.813c1.951,3.926,4.374,5.504,8.528,4.903c2.625-0.379,5.339-0.071,8.313-0.071
		c-0.568-0.945-0.892-1.519-1.242-2.074c-4.304-6.787-8.572-13.597-12.942-20.336c-0.831-1.283-0.873-2.137,0.071-3.363
		c3.543-4.596,6.994-9.271,10.461-13.935c1.178-1.579,2.553-2.911,1.873-5.444c-0.519-1.932-0.103-4.137-0.103-6.475
		c-6.853,0-13.422,0-20.01,0c0-3.22,0-6.177,0-9.386c6.184,0,12.235,0,18.286,0c0-2.813,0-5.366,0-8.212c-6.178,0-12.23,0-18.291,0
		c0-3.189,0-6.082,0-9.227c6.697,0,13.268,0,19.847,0c0-2.858,0-5.459,0-8.052c-10.453,0-20.737,0-31.255,0
		c0,14.418,0,28.726,0,43.265C262.863,148.064,261.08,148.064,259.247,148.064z M215.9,148.027c0,14.621,0,28.873,0,43.111
		c10.422,0,20.692,0,30.957,0c0-2.716,0-5.264,0-8.054c-6.652,0-13.164,0-19.65,0c0-3.261,0-6.271,0-9.444
		c6.118,0,12.061,0,18.052,0c0-2.776,0-5.381,0-8.216c-6.137,0-12.128,0-18.096,0c0-3.133,0-6.026,0-9.188
		c6.639,0,13.149,0,19.721,0c0-2.822,0-5.375,0-8.041c-1.255-0.094-2.407-0.18-3.563-0.266c6.008-2.468,10.31-6.132,10.412-13.613
		c-3.986,0-7.842,0-11.682,0c-0.832,3.285-1.563,4.4-3.492,5.375c-5.106,2.58-9.922,0.406-11.514-5.279
		c-1.229-4.391-1.135-8.896-0.456-13.34c0.32-2.092,1.142-4.154,2.036-6.077c0.843-1.81,2.527-2.694,4.434-2.915
		c4.797-0.561,7.481,1.22,9.041,5.945c3.849,0,7.705,0,11.558,0c0.079-5.582-2.562-9.709-7.648-11.967
		c-4.897-2.176-10.065-2.684-15.265-2.038c-8.773,1.088-13.989,6.156-15.73,15.211c-0.548,2.836-0.791,5.813-0.67,8.701
		c0.365,8.678,3.071,15.987,11.451,19.57c0.084,0.035,0.123,0.186,0.33,0.523C222.666,148.027,219.348,148.027,215.9,148.027z
		 M297.43,96.148c-2.109-1.261-3.556-2.024-4.896-2.949c-2.92-2.013-4.592-4.529-4.444-8.581c0.3-8.284,0.265-16.591,0.087-24.882
		c-0.258-11.9-9.443-19.302-20.438-16.509c-6.375,1.62-12.055,4.898-17.391,8.852c-1.158,0.859-1.252,1.793-0.49,2.936
		c1.668,2.504,3.295,5.04,5.052,7.475c0.39,0.542,1.403,1.142,1.848,0.959c0.634-0.261,1.274-1.152,1.44-1.891
		c0.505-2.243,0.867-4.531,1.135-6.821c0.463-3.952,0.736-4.407,4.384-5.342c5.796-1.484,11.863,0.313,13.677,6.282
		c0.657,2.164,0.92,4.507,1.051,6.788c0.199,3.5,0.025,3.323-3.055,4.377c-6.891,2.354-13.746,4.832-20.56,7.421
		c-2.786,1.059-4.431,3.456-5.322,6.383c-2.321,7.606,1.925,16.041,9.218,18.367c6.479,2.066,12.123,0.12,17.334-3.926
		c0.86-0.668,1.696-1.375,2.229-1.808c1.769,1.786,3.104,3.754,4.919,4.832c3.461,2.055,7.316,2.34,11.07,0.776
		C295.375,98.429,296.198,97.249,297.43,96.148z M0.371,134.416c-0.509,5.469,2.473,10.561,7.538,12.586
		c1.973,0.788,4.103,1.284,6.202,1.548c5.553,0.693,11.016,0.294,16.06-2.563c4.334-2.453,6.484-6.286,6.235-11.516
		c-0.243-5.097-2.731-8.494-7.154-10.414c-0.895-0.388-1.822-0.701-2.754-0.976c-3.606-1.065-7.262-1.968-10.816-3.195
		c-2.235-0.771-3.217-2.507-2.965-4.231c0.262-1.803,2.092-3.461,4.241-3.566c4.402-0.222,6.024,0.891,7.063,5.045
		c3.61,0,7.205,0,10.773,0c0.505-3.947-0.834-7.441-3.617-9.693c-2.49-2.015-5.381-2.965-8.438-3.316
		c-5.673-0.652-11.302-0.585-16.404,2.584c-4.164,2.588-5.768,6.67-5.348,11.602c0.387,4.547,2.699,7.692,6.822,9.256
		c1.941,0.736,3.915,1.394,5.895,2.01c2.601,0.809,5.268,1.406,7.82,2.35c2.218,0.819,3.274,2.551,3.065,4.438
		c-0.246,2.214-1.735,3.318-3.569,3.824c-4.448,1.22-8.855-0.016-9.86-5.769C7.563,134.416,3.959,134.416,0.371,134.416z
		 M240.6,85.239c-2.578,1.816-5.14,3.758-7.834,5.467c-1.578,1-3.355,2.27-5.065,2.31c-5.854,0.136-11.163-1.76-15.156-6.498
		c-7.053-8.368-7.364-22.468-0.731-31.381c4.31-5.791,10.078-8.022,16.975-7.255c1.543,0.171,2.339,0.996,2.732,2.648
		c0.719,3.029,1.655,6.005,2.582,8.976c0.566,1.811,1.512,2.053,2.791,0.717c0.529-0.553,0.928-1.325,1.184-2.073
		c0.892-2.623,1.798-5.249,2.505-7.93c0.877-3.335,0.634-3.743-2.373-5.091c-5.58-2.501-11.377-3.093-17.334-2.02
		c-7.455,1.342-14.022,4.543-18.888,10.77c-5.59,7.151-6.895,15.489-5.389,24.412c0.807,4.785,2.678,9.062,5.885,12.651
		c7.865,8.797,20.324,10.817,31.342,7.091c0.419-0.142,0.894-0.365,1.16-0.705c2.14-2.707,4.289-5.409,6.322-8.203
		C242.201,87.891,241.979,86.576,240.6,85.239z M85.551,118.049c0.329-5.283-2.53-9.793-7.723-12.021
		c-5.347-2.296-10.931-2.756-16.593-1.75c-7.206,1.282-11.897,5.661-13.91,13.046c-1.545,5.673-1.537,11.416-0.199,17.127
		c1.21,5.159,3.672,9.601,8.391,11.872c8.46,4.072,16.92,3.451,24.922-1.42c3.651-2.219,5.266-5.984,5.205-10.721
		c-2.026,0-3.954,0-5.882,0c-1.935,0-3.869,0-5.749,0c-0.864,3.363-1.551,4.449-3.353,5.412c-5.113,2.739-10.069,0.581-11.686-5.171
		c-1.213-4.317-1.148-8.753-0.499-13.133c0.31-2.095,1.059-4.188,1.961-6.103c1.024-2.164,2.973-3.102,5.297-3.146
		c4.178-0.082,7.37,1.321,8.257,6.006C77.957,118.049,81.76,118.049,85.551,118.049z M149.295,94.643
		c-3.064-0.844-6.178-1.712-9.299-2.558c-2.767-0.751-2.774-0.742-2.775-3.82c-0.002-8.096,0.052-16.192-0.035-24.288
		c-0.024-2.218,0.501-4.148,1.63-5.958c1.738-2.787,3.917-5.093,6.833-6.478c2.422-1.15,3.844-0.537,5.052,1.887
		c0.658,1.325,1.314,2.664,2.109,3.9c0.422,0.657,1.301,1.66,1.684,1.534c0.73-0.241,1.561-1.065,1.816-1.842
		c1.148-3.46,2.09-6.996,3.149-10.489c0.446-1.473-0.14-2.321-1.342-2.941c-3.001-1.55-6.058-1.268-9.073-0.183
		c-4.465,1.607-7.743,4.838-10.476,8.762c-0.386,0.554-0.809,1.081-1.214,1.62c-0.469-0.995-0.47-1.789-0.549-2.575
		c-0.236-2.364-0.423-4.738-0.816-7.074c-0.094-0.555-1.053-1.477-1.387-1.378c-3.983,1.168-8.006,2.275-11.84,3.871
		c-2.126,0.885-1.866,3.386,0.199,4.503c0.808,0.438,1.564,1.003,2.409,1.325c1.694,0.645,2.13,1.869,2.048,3.655
		c-0.177,3.87-0.241,7.746-0.276,11.622c-0.063,7.142-0.1,14.287-0.077,21.429c0.005,1.499-0.459,2.395-1.816,2.957
		c-1.441,0.597-2.977,1.197-4.131,2.218c-0.75,0.663-0.892,2.083-1.306,3.164c0.752,0.229,1.501,0.653,2.255,0.658
		c8.04,0.049,16.081,0.033,24.122,0.033C148.952,98.197,149.15,97.982,149.295,94.643z M182.363,67.054c-0.008,0-0.014,0-0.021,0
		c0-7.408-0.021-14.817,0.018-22.225c0.007-1.466-0.273-2.489-1.937-2.102c-4.231,0.987-8.475,1.928-12.655,3.122
		c-0.694,0.2-1.301,1.517-1.524,2.434c-0.104,0.417,0.731,1.267,1.304,1.647c0.979,0.649,2.057,1.164,3.146,1.586
		c1.236,0.481,1.613,1.337,1.608,2.659c-0.046,11.69-0.065,23.379-0.044,35.07c0.003,1.352-0.462,2.138-1.626,2.662
		c-1.427,0.644-2.978,1.193-4.134,2.211c-0.813,0.716-1.057,2.145-1.557,3.256c0.778,0.272,1.552,0.776,2.33,0.783
		c6.802,0.063,13.604,0.039,20.406,0.038c0.452,0,1.116,0.169,1.32-0.074c0.662-0.792,1.334-1.681,1.634-2.657
		c0.118-0.382-0.631-1.346-1.178-1.609c-1.583-0.763-3.243-1.374-4.912-1.912c-1.601-0.515-2.229-1.483-2.211-3.275
		C182.409,81.463,182.363,74.258,182.363,67.054z M176.809,33.163c0.271-0.164,0.822-0.394,1.25-0.778
		c0.979-0.883,1.984-1.76,2.823-2.782c3.823-4.659,3.911-4.906,0.054-9.446c-3.071-3.617-3.682-3.631-6.942-0.2
		c-1.486,1.564-2.838,3.386-3.817,5.33C169.352,26.921,174.648,33.282,176.809,33.163z"/>
	<path display="inline" fill="#222222" d="M163.707,147.995c-2.248,13.72-4.518,27.437-6.716,41.161
		c-0.263,1.631-0.79,2.279-2.476,2.195c-3.234-0.164-6.484-0.106-9.725-0.02c-1.316,0.035-1.903-0.311-2.216-1.783
		c-1.972-9.275-4.063-18.521-6.12-27.773c-0.145-0.655-0.322-1.301-0.629-2.527c-0.339,0.923-0.542,1.34-0.647,1.783
		c-2.21,9.355-4.444,18.703-6.581,28.078c-0.374,1.644-0.954,2.33-2.677,2.242c-3.234-0.168-6.483-0.095-9.724-0.025
		c-1.244,0.027-1.78-0.299-2.006-1.727c-2.143-13.602-4.376-27.184-6.588-40.771c-0.032-0.196-0.114-0.383-0.242-0.798
		c-3.41,0-6.88,0-10.498,0c0-14.479,0-28.73,0-43.164c3.614,0,7.255,0,11.075,0c0,14.311,0,28.569,0,43.194
		c2.919,0,5.679,0.11,8.425-0.039c1.774-0.098,2.412,0.396,2.618,2.381c0.927,8.912,2.057,17.802,3.128,26.697
		c0.076,0.635,0.262,1.258,0.794,1.916c2.172-10.229,4.345-20.457,6.581-30.985c-3.031,0-5.891,0-8.861,0
		c0-14.529,0-28.783,0-43.191c10.373,0,20.705,0,31.168,0c0,2.58,0,5.134,0,7.94c-6.558,0-13.13,0-19.862,0c0,3.188,0,6.127,0,9.312
		c6.055,0,12.058,0,18.208,0c0,2.845,0,5.449,0,8.255c-6.098,0-12.101,0-18.236,0c0,3.15,0,6.109,0,9.326c6.584,0,13.161,0,19.878,0
		c0,2.859,0,5.464,0,8.271c-2.771,0-5.464,0-8.469,0c2.007,10.388,3.964,20.52,5.921,30.651c0.188,0.009,0.377,0.015,0.565,0.023
		c1.237-10.134,2.472-20.265,3.743-30.665c3.345,0,6.51,0,9.675,0C163.38,147.968,163.544,147.98,163.707,147.995z"/>
	<path display="inline" fill="#222222" d="M163.707,147.995c-0.163-0.015-0.327-0.027-0.492-0.041c0-14.338,0-28.677,0-43.259
		c5.131,0,10.104-0.046,15.072,0.072c0.484,0.011,1.12,0.947,1.398,1.592c4.02,9.271,7.983,18.565,11.969,27.851
		c0.305,0.707,0.669,1.386,1.007,2.075c0.161-0.041,0.325-0.083,0.487-0.125c0-10.402,0-20.805,0-31.339c3.479,0,6.686,0,10.192,0
		c0,0.822,0,1.607,0,2.393c0,12.519-0.054,25.036,0.038,37.556c0.023,3.094,0.533,6.184,0.782,9.277
		c0.054,0.655-0.054,1.323-0.099,2.243c-6.629,0-13.14,0-19.746,0c0,3.161,0,6.06,0,9.147c6.017,0,11.955,0,18.082,0
		c0,2.782,0,5.383,0,8.229c-5.947,0-11.938,0-18.053,0c0,3.202,0,6.163,0,9.379c6.498,0,13.006,0,19.67,0c0,2.795,0,5.343,0,8.074
		c-10.211,0-20.479,0-31.002,0c0-14.24,0-28.548,0-43.126C169.751,147.995,166.729,147.995,163.707,147.995z M173.795,115.195
		c-0.115,0.035-0.229,0.07-0.345,0.104c0,10.857,0,21.715,0,32.66c4.696,0,9.258,0,14.174,0
		C182.948,136.884,178.373,126.04,173.795,115.195z"/>
	<path display="inline" fill="#222222" d="M259.247,148.064c1.833,0,3.616,0,5.624,0c0-14.539,0-28.847,0-43.265
		c10.518,0,20.802,0,31.255,0c0,2.593,0,5.193,0,8.052c-6.579,0-13.147,0-19.847,0c0,3.145,0,6.037,0,9.227
		c6.061,0,12.113,0,18.291,0c0,2.846,0,5.398,0,8.212c-6.051,0-12.104,0-18.286,0c0,3.209,0,6.166,0,9.386c6.588,0,13.157,0,20.01,0
		c0,2.338-0.416,4.543,0.103,6.475c0.68,2.533-0.695,3.865-1.873,5.445c-3.467,4.661-6.918,9.338-10.461,13.935
		c-0.944,1.227-0.902,2.079-0.071,3.362c4.37,6.739,8.64,13.549,12.942,20.336c0.352,0.557,0.674,1.129,1.242,2.074
		c-2.974,0-5.688-0.308-8.313,0.071c-4.154,0.601-6.577-0.979-8.528-4.903c-2.719-5.464-6.104-10.563-9.212-15.813
		c-0.389-0.657-0.826-1.283-1.688-1.76c0,7.363,0,14.726,0,22.244c-3.822,0-7.416,0-11.188,0
		C259.247,176.877,259.247,162.588,259.247,148.064z M270.498,166.568c0.148,0.054,0.302,0.106,0.452,0.158
		c4.21-6.121,8.424-12.244,12.778-18.578c-4.66,0-8.938,0-13.23,0C270.498,154.407,270.498,160.489,270.498,166.568z"/>
	<path display="inline" fill="#222222" d="M215.9,148.027c3.447,0,6.766,0,10.225,0c-0.207-0.338-0.246-0.487-0.33-0.522
		c-8.38-3.583-11.086-10.894-11.451-19.569c-0.121-2.89,0.122-5.865,0.67-8.703c1.741-9.056,6.957-14.123,15.73-15.21
		c5.199-0.646,10.365-0.138,15.265,2.037c5.089,2.26,7.728,6.387,7.648,11.967c-3.853,0-7.709,0-11.558,0
		c-1.56-4.726-4.244-6.504-9.041-5.944c-1.904,0.221-3.591,1.106-4.434,2.915c-0.896,1.923-1.716,3.986-2.036,6.077
		c-0.679,4.442-0.772,8.948,0.456,13.34c1.592,5.687,6.406,7.86,11.514,5.28c1.93-0.976,2.66-2.092,3.492-5.377
		c3.84,0,7.694,0,11.682,0c-0.104,7.482-4.404,11.146-10.412,13.615c1.154,0.084,2.309,0.17,3.563,0.264c0,2.668,0,5.22,0,8.043
		c-6.571,0-13.082,0-19.721,0c0,3.16,0,6.056,0,9.188c5.968,0,11.959,0,18.096,0c0,2.835,0,5.438,0,8.217
		c-5.991,0-11.934,0-18.052,0c0,3.174,0,6.184,0,9.443c6.486,0,12.998,0,19.65,0c0,2.79,0,5.338,0,8.053
		c-10.265,0-20.535,0-30.957,0C215.9,176.9,215.9,162.648,215.9,148.027z"/>
	<path display="inline" fill="#A9A9A9" d="M83.108,96.121c-0.592,1.736-1.777,2.138-3.477,2.115
		c-7.066-0.097-14.133-0.039-21.199-0.046c-0.699-0.001-1.399-0.063-2.167-0.1c-0.295-2.05,0.555-3.295,1.912-4.431
		c2.859-2.394,3.011-1.448,1.451-5.602c-2.018-5.378-4.16-10.706-6.172-16.086c-0.551-1.474-1.316-2.083-2.885-2.038
		c-7.642,0.223-15.287,0.348-22.932,0.458c-1.131,0.018-1.773,0.432-2.182,1.561c-2.023,5.594-4.074,11.178-6.179,16.739
		c-0.53,1.396-0.254,2.132,1.121,2.595c2.406,0.811,4.776,1.739,7.167,2.597c0.903,0.325,1.484,0.773,1.148,1.932
		c-0.294,1.011-0.208,2.343-1.668,2.343c-8.166-0.002-16.331-0.044-24.496-0.082c-0.105,0-0.211-0.139-0.387-0.263
		c-0.007-2.01,0.471-3.708,2.632-4.316c4.708-1.323,7.191-4.673,9.014-9.363c7.196-18.51,14.729-36.875,22.108-55.305
		c0.846-2.112,1.211-4.264,0.153-6.51c-0.257-0.544-0.103-1.823,0.288-2.097c2.624-1.837,5.362-3.494,8.203-5.298
		c0.25,0.607,0.424,0.946,0.533,1.308c1.625,5.36,2.952,10.841,4.912,16.062c6.7,17.841,13.66,35.576,20.428,53.39
		c1.219,3.208,3.11,5.415,6.245,6.46c1.605,0.534,3.177,1.185,4.792,1.683c1.163,0.359,1.814,0.985,1.618,2.326L83.108,96.121z
		 M40.051,33.58c-0.229-0.018-0.459-0.035-0.688-0.051c-3.561,9.823-7.121,19.646-10.864,29.974c7.601,0,14.637,0,21.962,0
		C46.939,53.382,43.496,43.481,40.051,33.58z"/>
	<path display="inline" fill="#A9A9A9" d="M297.43,96.148c-1.23,1.101-2.055,2.281-3.154,2.74
		c-3.754,1.564-7.608,1.279-11.069-0.776c-1.815-1.078-3.149-3.046-4.919-4.832c-0.533,0.433-1.369,1.14-2.229,1.808
		c-5.213,4.045-10.856,5.992-17.334,3.926c-7.293-2.327-11.541-10.761-9.219-18.367c0.893-2.928,2.536-5.324,5.322-6.383
		c6.813-2.59,13.669-5.067,20.561-7.421c3.079-1.054,3.252-0.877,3.053-4.377c-0.131-2.281-0.393-4.624-1.049-6.788
		c-1.813-5.969-7.883-7.766-13.678-6.282c-3.646,0.935-3.921,1.39-4.384,5.342c-0.269,2.29-0.63,4.578-1.136,6.821
		c-0.166,0.739-0.807,1.629-1.439,1.891c-0.443,0.183-1.458-0.417-1.848-0.959c-1.758-2.435-3.383-4.971-5.053-7.475
		c-0.762-1.143-0.668-2.077,0.492-2.936c5.336-3.954,11.014-7.231,17.389-8.852c10.994-2.793,20.182,4.608,20.438,16.509
		c0.177,8.292,0.212,16.598-0.087,24.882c-0.146,4.052,1.523,6.567,4.443,8.581C293.874,94.124,295.318,94.887,297.43,96.148z
		 M278.428,78.878c0.02,0,0.035,0,0.057,0c0-2.106-0.031-4.213,0.01-6.318c0.027-1.395-0.487-1.91-1.766-1.4
		c-4.59,1.834-9.295,3.41-13.729,5.594c-4.327,2.134-5.089,8.44-1.822,12.146c3.674,4.173,9.85,4.561,14.502,0.995
		c1.883-1.444,2.84-3.258,2.76-5.716C278.381,82.414,278.428,80.645,278.428,78.878z"/>
	<path display="inline" fill="#A9A9A9" d="M83.089,96.154c1.31-0.908,2.54-1.993,3.942-2.696c5.542-2.774,4.566-1.013,4.624-7.32
		c0.102-11.087,0.018-22.175,0.104-33.261c0.014-1.81-0.63-2.556-2.243-2.848c-1.768-0.32-3.501-0.845-5.232-1.276
		c0.642-4.011,1.191-4.537,4.539-4.55c2.825-0.01,2.939-0.003,3.092-3.019c0.245-4.794,0.849-9.511,2.768-13.894
		c3.932-8.979,10.185-14.935,19.979-15.434c2.609-0.133,5.299,0.926,7.898,1.652c0.466,0.129,1.074,1.431,0.922,1.979
		c-0.836,2.996-1.784,5.97-2.926,8.851c-0.343,0.865-1.356,1.572-2.222,1.987c-0.232,0.112-1.19-1.027-1.569-1.737
		c-1.007-1.898-1.774-3.947-2.864-5.787c-0.419-0.706-1.432-1.371-2.215-1.429c-2.483-0.181-4.302,1.226-5.674,3.295
		c-2.222,3.351-2.977,7.23-3.369,11.164c-0.336,3.374-0.302,6.786-0.518,10.174c-0.111,1.737,0.601,2.252,2.161,2.219
		c3.5-0.075,7.001-0.028,10.503-0.016c0.689,0.002,1.379,0.07,2.088,0.109c-0.584,3.798-1.337,4.54-4.511,4.848
		c-2.708,0.263-5.406,0.637-8.112,0.925c-1.433,0.152-2.143,0.739-2.15,2.436c-0.052,12.103-0.174,24.204-0.319,36.306
		c-0.019,1.542,0.491,2.349,1.955,2.732c2.703,0.706,5.38,1.533,8.032,2.427c0.522,0.176,1.326,1.019,1.241,1.305
		c-0.3,1.003-0.864,1.952-1.479,2.8c-0.177,0.243-0.864,0.1-1.316,0.1c-8.299,0.003-16.598-0.021-24.896,0.023
		c-1.465,0.008-2.45-0.262-2.213-2.097L83.089,96.154z"/>
	<path display="inline" fill="#222222" d="M0.371,134.416c3.588,0,7.192,0,10.79,0c1.004,5.753,5.412,6.986,9.86,5.768
		c1.834-0.504,3.324-1.609,3.569-3.824c0.208-1.887-0.847-3.616-3.065-4.437c-2.553-0.942-5.22-1.541-7.82-2.35
		c-1.98-0.616-3.953-1.272-5.895-2.009c-4.123-1.563-6.435-4.709-6.822-9.258c-0.42-4.931,1.184-9.013,5.348-11.601
		c5.103-3.169,10.731-3.237,16.404-2.584c3.056,0.351,5.948,1.303,8.438,3.317c2.783,2.252,4.122,5.744,3.617,9.692
		c-3.568,0-7.163,0-10.773,0c-1.039-4.153-2.662-5.267-7.063-5.045c-2.149,0.106-3.979,1.765-4.241,3.565
		c-0.252,1.727,0.73,3.462,2.965,4.232c3.554,1.229,7.21,2.131,10.816,3.195c0.932,0.273,1.859,0.588,2.754,0.977
		c4.423,1.92,6.912,5.316,7.154,10.413c0.25,5.229-1.9,9.063-6.235,11.517c-5.044,2.855-10.507,3.256-16.06,2.563
		c-2.099-0.264-4.229-0.76-6.202-1.548C2.844,144.977-0.138,139.885,0.371,134.416z"/>
	<path display="inline" fill="#A9A9A9" d="M240.6,85.239c1.379,1.337,1.603,2.652,0.705,3.886c-2.031,2.794-4.183,5.496-6.32,8.203
		c-0.269,0.34-0.742,0.563-1.161,0.705c-11.019,3.726-23.476,1.706-31.341-7.091c-3.209-3.589-5.078-7.866-5.887-12.651
		c-1.505-8.923-0.199-17.261,5.389-24.412c4.865-6.226,11.434-9.427,18.889-10.77c5.957-1.074,11.754-0.482,17.334,2.02
		c3.007,1.348,3.25,1.756,2.373,5.091c-0.707,2.682-1.613,5.308-2.505,7.93c-0.257,0.749-0.653,1.521-1.185,2.073
		c-1.279,1.336-2.224,1.094-2.789-0.717c-0.928-2.971-1.865-5.947-2.584-8.976c-0.394-1.652-1.188-2.478-2.731-2.648
		c-6.896-0.768-12.665,1.464-16.974,7.255c-6.635,8.914-6.321,23.014,0.73,31.381c3.993,4.737,9.303,6.634,15.156,6.498
		c1.71-0.04,3.486-1.31,5.064-2.31C235.46,88.997,238.021,87.055,240.6,85.239z"/>
	<path display="inline" fill="#222222" d="M85.551,118.049c-3.791,0-7.594,0-11.56,0c-0.888-4.684-4.08-6.088-8.257-6.006
		c-2.324,0.045-4.272,0.98-5.297,3.146c-0.902,1.912-1.651,4.007-1.961,6.102c-0.649,4.38-0.714,8.814,0.499,13.133
		c1.617,5.752,6.573,7.91,11.686,5.172c1.802-0.964,2.489-2.05,3.353-5.414c1.88,0,3.814,0,5.749,0c1.928,0,3.856,0,5.882,0
		c0.061,4.736-1.553,8.502-5.205,10.723c-8.002,4.869-16.462,5.492-24.922,1.419c-4.719-2.271-7.181-6.714-8.391-11.872
		c-1.338-5.711-1.346-11.454,0.199-17.127c2.013-7.387,6.704-11.766,13.91-13.046c5.662-1.006,11.246-0.547,16.593,1.75
		C83.021,108.255,85.88,112.766,85.551,118.049z"/>
	<path display="inline" fill="#A9A9A9" d="M149.295,94.643c-0.145,3.34-0.343,3.554-3.104,3.554c-8.041,0-16.082,0.017-24.122-0.033
		c-0.754-0.004-1.503-0.429-2.255-0.658c0.414-1.081,0.556-2.5,1.306-3.164c1.155-1.021,2.69-1.621,4.131-2.218
		c1.357-0.562,1.821-1.458,1.816-2.957c-0.022-7.143,0.015-14.287,0.077-21.429c0.035-3.875,0.099-7.752,0.276-11.622
		c0.082-1.787-0.354-3.011-2.048-3.655c-0.845-0.322-1.602-0.888-2.409-1.325c-2.065-1.117-2.325-3.619-0.199-4.503
		c3.834-1.596,7.857-2.703,11.84-3.871c0.334-0.099,1.293,0.823,1.387,1.378c0.393,2.335,0.58,4.71,0.816,7.074
		c0.079,0.786,0.08,1.58,0.549,2.575c0.406-0.539,0.828-1.066,1.214-1.62c2.733-3.923,6.011-7.155,10.476-8.762
		c3.017-1.085,6.072-1.368,9.073,0.183c1.203,0.621,1.788,1.469,1.342,2.941c-1.061,3.494-2.001,7.029-3.148,10.489
		c-0.258,0.777-1.086,1.601-1.817,1.842c-0.382,0.126-1.263-0.877-1.685-1.534c-0.793-1.236-1.449-2.575-2.108-3.9
		c-1.208-2.423-2.63-3.037-5.052-1.887c-2.917,1.384-5.096,3.691-6.833,6.478c-1.129,1.809-1.654,3.74-1.63,5.958
		c0.086,8.096,0.033,16.192,0.035,24.288c0.001,3.078,0.008,3.068,2.775,3.82C143.117,92.931,146.23,93.799,149.295,94.643z"/>
	<path display="inline" fill="#A9A9A9" d="M182.363,67.054c0,7.204,0.046,14.409-0.03,21.613c-0.021,1.792,0.61,2.76,2.211,3.275
		c1.669,0.538,3.329,1.149,4.912,1.912c0.547,0.263,1.296,1.227,1.178,1.609c-0.3,0.976-0.972,1.865-1.634,2.657
		c-0.204,0.244-0.868,0.074-1.32,0.074c-6.804,0.001-13.604,0.026-20.406-0.038c-0.778-0.007-1.551-0.511-2.33-0.783
		c0.5-1.111,0.742-2.54,1.557-3.256c1.157-1.018,2.707-1.567,4.134-2.211c1.164-0.524,1.63-1.31,1.626-2.662
		c-0.021-11.69-0.002-23.38,0.045-35.07c0.004-1.322-0.373-2.178-1.609-2.659c-1.092-0.422-2.168-0.938-3.146-1.586
		c-0.572-0.381-1.406-1.23-1.304-1.647c0.226-0.917,0.83-2.234,1.524-2.434c4.182-1.194,8.424-2.135,12.655-3.122
		c1.662-0.387,1.942,0.636,1.937,2.102c-0.037,7.408-0.018,14.816-0.018,22.225C182.35,67.054,182.355,67.054,182.363,67.054z"/>
	<path display="inline" fill="#A9A9A9" d="M176.809,33.163c-2.16,0.119-7.457-6.242-6.634-7.875c0.979-1.944,2.331-3.766,3.817-5.33
		c3.262-3.431,3.871-3.417,6.943,0.2c3.856,4.54,3.77,4.787-0.055,9.446c-0.839,1.021-1.846,1.899-2.824,2.782
		C177.631,32.77,177.079,32.999,176.809,33.163z"/>
	<path fill="#FEFEFE" d="M173.795,115.195c4.578,10.845,9.153,21.688,13.829,32.765c-4.916,0-9.478,0-14.174,0
		c0-10.946,0-21.803,0-32.66C173.566,115.266,173.68,115.23,173.795,115.195z"/>
	<path fill="#FDFDFD" d="M270.498,166.568c0-6.079,0-12.161,0-18.42c4.294,0,8.57,0,13.23,0
		c-4.354,6.334-8.568,12.457-12.778,18.578C270.8,166.676,270.646,166.622,270.498,166.568z"/>
	<path fill="#FEFEFE" d="M40.051,33.58c3.445,9.901,6.889,19.802,10.41,29.923c-7.325,0-14.361,0-21.962,0
		c3.743-10.328,7.303-20.151,10.864-29.974C39.592,33.545,39.821,33.563,40.051,33.58z"/>
	<path fill="#FEFEFE" d="M278.428,78.878c0,1.767-0.047,3.536,0.012,5.3c0.08,2.458-0.877,4.271-2.76,5.716
		c-4.652,3.565-10.828,3.178-14.503-0.995c-3.266-3.706-2.504-10.012,1.823-12.146c4.434-2.184,9.139-3.76,13.729-5.594
		c1.277-0.51,1.793,0.006,1.766,1.4c-0.041,2.105-0.01,4.212-0.01,6.318C278.463,78.878,278.445,78.878,278.428,78.878z"/>
</g>
<g>
	<path display="none" fill-rule="evenodd" clip-rule="evenodd" fill="#FEFEFE" d="M261.21,215.064c-72.512,0-144.989,0-217.433,0
		c0-72.513,0-144.989,0-217.433c72.512,0,144.99,0,217.433,0C261.21,70.144,261.21,142.62,261.21,215.064z M90.537,172.253
		c0.411,0.351,0.821,0.7,1.231,1.05c2.929-2.433,5.877-4.844,8.783-7.304c5.72-4.842,11.161-10.056,17.178-14.491
		c10.241-7.55,21.561-8.848,33.158-3.466c2.658,1.232,5.489,3.92,6.481,6.591c3.563,9.588,6.348,19.462,9.487,29.208
		c0.551,1.708,1.4,3.32,2.112,4.977c1.123-1.294,1.27-2.21,1.101-3.063c-1.628-8.245-3.331-16.478-4.972-24.721
		c-2.648-13.313-0.567-18,11.152-25.202c1.246-0.765,2.6-1.362,3.807-2.181c4.346-2.95,8.645-3.087,13.391-0.67
		c10.103,5.145,20.311,10.09,30.57,14.916c3.271,1.538,6.838,2.443,10.271,3.639c0.161-0.422,0.323-0.842,0.485-1.263
		c-1.556-0.878-3.159-1.679-4.658-2.644c-12.755-8.2-25.453-16.488-38.255-24.613c-3.776-2.397-4.785-5.41-4.018-9.729
		c0.957-5.387,1.749-10.876,1.8-16.33c0.05-5.237,2.414-7.453,6.996-9.611c14.356-6.764,28.404-14.189,42.492-21.512
		c1.861-0.967,3.261-2.823,4.875-4.267c-2.396-0.148-4.016,0.637-5.686,1.293c-15.13,5.942-30.195,12.059-45.439,17.693
		c-6.34,2.344-21.435-6.65-22.691-13.151c-0.351-1.819,0.205-4.021,0.934-5.807c2.829-6.941,6.008-13.741,8.841-20.681
		c2.929-7.171,5.605-14.445,8.393-21.674c-0.575-0.248-1.148-0.496-1.723-0.744c-1.001,1.843-2.005,3.683-3.002,5.528
		c-6.082,11.249-12.165,22.498-18.242,33.751c-1.94,3.594-4.821,4.745-8.978,4.835c-6.352,0.137-12.836,0.64-18.972,2.164
		c-4.889,1.213-7.957,0.55-10.579-3.741c-6.005-9.83-12.177-19.558-18.371-29.271c-1.17-1.835-2.752-3.409-4.145-5.104
		c-0.397,0.264-0.795,0.527-1.193,0.791c1.308,3.344,2.429,6.776,3.959,10.016c4.681,9.916,9.638,19.702,14.262,29.644
		c4.055,8.717,1.089,16.079-5.277,22.344c-6.627,6.521-15.143,8.757-24.069,9.189c-8.088,0.391-16.211,0.083-24.318,0.083
		c1.586,1.395,3.289,1.844,5.01,2.211c6.971,1.489,14.038,2.634,20.884,4.563c3.393,0.956,7.39,2.59,9.355,5.228
		c4.767,6.4,8.549,13.541,12.639,20.437c2.512,4.235,2.304,8.114-1.189,12.008c-5.251,5.853-10.174,12.002-15.168,18.08
		C96.271,164.861,93.433,168.582,90.537,172.253z"/>
	<path fill-rule="evenodd" clip-rule="evenodd" fill="#7F7F7F" d="M82.267,171.557c3.052-3.824,6.042-7.702,9.17-11.466
		c5.263-6.333,10.451-12.741,15.985-18.84c3.682-4.057,3.9-8.099,1.253-12.512c-4.31-7.186-8.296-14.626-13.32-21.296
		c-2.071-2.748-6.284-4.45-9.859-5.447c-7.215-2.01-14.663-3.202-22.009-4.754c-1.813-0.382-3.608-0.851-5.28-2.304
		c8.544,0,17.104,0.321,25.629-0.086c9.407-0.45,18.382-2.78,25.366-9.575c6.709-6.528,9.835-14.2,5.562-23.283
		c-4.874-10.359-10.098-20.557-15.031-30.889c-1.612-3.376-2.793-6.953-4.172-10.437c0.419-0.275,0.838-0.548,1.257-0.824
		c1.468,1.766,3.135,3.406,4.369,5.318c6.527,10.121,13.031,20.258,19.36,30.501c2.763,4.471,5.997,5.162,11.149,3.897
		c6.467-1.587,13.3-2.111,19.995-2.254c4.38-0.094,7.416-1.293,9.461-5.038c6.404-11.726,12.815-23.447,19.226-35.169
		c1.051-1.922,2.108-3.839,3.163-5.76c0.605,0.258,1.21,0.516,1.815,0.775c-2.938,7.533-5.758,15.112-8.845,22.584
		c-2.985,7.232-6.335,14.317-9.317,21.55c-0.768,1.861-1.354,4.155-0.983,6.051c1.324,6.773,17.232,16.146,23.914,13.703
		c16.065-5.871,31.942-12.245,47.888-18.436c1.76-0.684,3.467-1.501,5.992-1.348c-1.701,1.505-3.176,3.438-5.138,4.446
		c-14.847,7.63-29.651,15.367-44.782,22.415c-4.828,2.249-7.32,4.558-7.373,10.015c-0.053,5.683-0.888,11.403-1.896,17.017
		c-0.809,4.5,0.254,7.64,4.234,10.138c13.491,8.467,26.874,17.103,40.316,25.647c1.579,1.006,3.27,1.84,4.909,2.755
		c-0.171,0.438-0.342,0.876-0.512,1.315c-3.618-1.245-7.377-2.188-10.824-3.791c-10.813-5.029-21.57-10.183-32.218-15.543
		c-5.002-2.519-9.532-2.376-14.112,0.698c-1.271,0.853-2.698,1.476-4.012,2.272c-12.351,7.504-14.544,12.389-11.753,26.261
		c1.729,8.589,3.523,17.167,5.239,25.759c0.179,0.89,0.024,1.844-1.159,3.192c-0.751-1.726-1.646-3.406-2.227-5.186
		c-3.309-10.155-6.244-20.444-9.999-30.436c-1.045-2.782-4.029-5.583-6.83-6.867c-12.222-5.608-24.152-4.256-34.945,3.611
		c-6.341,4.622-12.075,10.055-18.103,15.1c-3.063,2.563-6.169,5.076-9.257,7.611C83.132,172.287,82.7,171.922,82.267,171.557z
		 M139.828,122.393c14.232,0.135,26.751-11.477,27.449-23.933c0.378-6.78-2.549-11.75-8.404-15.121
		c-10.146-5.839-21.854-3.592-30.801,5.896c-4.45,4.719-7.667,19.353-4.54,24.385C127.479,119.974,134.475,121.419,139.828,122.393z
		 M162.296,126.896c-10.547-0.9-15.695,3.17-14.254,10.899C156.262,137.038,160.809,133.67,162.296,126.896z M134.747,130.409
		c-6.204-3.668-11.727-6.934-18.188-10.753C117.319,129.658,126.46,134.924,134.747,130.409z M135.733,68.658
		c-9.901,0.222-13.321,3.263-11.771,10.081C132.334,79.262,135.7,76.485,135.733,68.658z M167.091,120.978
		c7.455,0.734,8.189-4.133,9.592-8.257c0.353-1.032-0.193-2.364-0.326-3.56c-1.382,0.312-3.527,0.184-4.012,1.009
		C170.321,113.617,168.798,117.35,167.091,120.978z M106.255,102.309c0.907,0.733,1.814,1.467,2.721,2.2
		c2.401-2.366,5.006-4.576,7.068-7.202c0.561-0.714-0.26-2.832-0.963-4c-0.264-0.44-2.576-0.434-2.966,0.089
		C109.992,96.242,108.177,99.314,106.255,102.309z"/>
	<path display="none" fill-rule="evenodd" clip-rule="evenodd" fill="#FEFEFE" d="M145.154,125.07
		c-5.079-0.934-11.717-2.321-15.463-8.418c-2.968-4.829,0.084-18.873,4.307-23.402c8.49-9.105,19.599-11.263,29.226-5.659
		c5.557,3.235,8.334,8.005,7.975,14.511C170.538,114.057,158.658,125.2,145.154,125.07z"/>
	<path display="none" fill-rule="evenodd" clip-rule="evenodd" fill="#FCFCFC" d="M166.474,129.393
		c-1.411,6.501-5.726,9.733-13.525,10.46C151.581,132.436,156.466,128.529,166.474,129.393z"/>
	<path display="none" fill-rule="evenodd" clip-rule="evenodd" fill="#FBFBFB" d="M140.333,132.764
		c-7.863,4.333-16.537-0.721-17.257-10.319C129.207,126.11,134.447,129.244,140.333,132.764z"/>
	<path display="none" fill-rule="evenodd" clip-rule="evenodd" fill="#FCFCFC" d="M141.27,73.502
		c-0.032,7.511-3.226,10.176-11.169,9.674C128.629,76.634,131.875,73.715,141.27,73.502z"/>
	<path display="none" fill-rule="evenodd" clip-rule="evenodd" fill="#F7F7F7" d="M171.023,123.713
		c1.62-3.481,3.065-7.063,4.985-10.372c0.46-0.792,2.495-0.669,3.807-0.968c0.126,1.146,0.644,2.425,0.31,3.416
		C178.794,119.746,178.098,124.417,171.023,123.713z"/>
	<path display="none" fill-rule="evenodd" clip-rule="evenodd" fill="#FAFAFA" d="M113.299,105.797
		c1.823-2.875,3.545-5.822,5.56-8.554c0.37-0.502,2.564-0.507,2.814-0.085c0.667,1.122,1.447,3.154,0.915,3.839
		c-1.957,2.52-4.429,4.641-6.707,6.911C115.02,107.205,114.159,106.5,113.299,105.797z"/>
</g>
</svg>
